<?xml version="1.0" standalone="no"?><!DOCTYPE svg PUBLIC "-//W3C//DTD SVG 1.1//EN" "http://www.w3.org/Graphics/SVG/1.1/DTD/svg11.dtd"><svg t="1551348516497" class="icon" style="" viewBox="0 0 1024 1024" version="1.1" xmlns="http://www.w3.org/2000/svg" p-id="4140" xmlns:xlink="http://www.w3.org/1999/xlink" width="200" height="200"><defs><style type="text/css"></style></defs><path d="M417 704a287.43 287.43 0 0 1 107-224H128v416a64 64 0 0 0 64 64h381c-92.68-47.88-156-144.54-156-256zM288 832a32 32 0 0 1-64 0V640a32 32 0 0 1 64 0z m128 0a32 32 0 0 1-64 0V640a32 32 0 0 1 64 0z m32-448h128a32.09 32.09 0 0 0 32-32V96a32.09 32.09 0 0 0-32-32H448a32.09 32.09 0 0 0-32 32v256a32.09 32.09 0 0 0 32 32z m448-96H640v64a64 64 0 0 1-64 64H448a64 64 0 0 1-64-64v-64H128a64 64 0 0 0-64 64v32a64 64 0 0 0 64 64h445a288.44 288.44 0 0 1 264 0h59a64 64 0 0 0 64-64v-32a64 64 0 0 0-64-64z" p-id="4141"></path><path d="M704.05 621.79a82.26 82.26 0 1 0 58.17 24.09 81.72 81.72 0 0 0-58.17-24.09zM704 448c-141.38 0-256 114.62-256 256s114.62 256 256 256 256-114.62 256-256-114.62-256-256-256z m181 285.68L843.17 742a13.77 13.77 0 0 0-10.22 8.84q-2.08 5.72-4.64 11.19a13.78 13.78 0 0 0 1 13.49L852.94 811a13.71 13.71 0 0 1-1.71 17.3l-22.88 22.88a13.71 13.71 0 0 1-17.3 1.71l-35.48-23.65a13.78 13.78 0 0 0-13.49-1q-5.47 2.56-11.19 4.64a13.77 13.77 0 0 0-8.89 10.29L733.68 885a13.71 13.71 0 0 1-13.44 11h-32.37a13.71 13.71 0 0 1-13.44-11l-8.36-41.81a13.77 13.77 0 0 0-8.84-10.22q-5.72-2.08-11.19-4.64a13.78 13.78 0 0 0-13.49 1l-35.48 23.65a13.71 13.71 0 0 1-17.3-1.71l-22.88-22.88a13.71 13.71 0 0 1-1.71-17.3l23.65-35.48a13.78 13.78 0 0 0 1-13.49q-2.56-5.47-4.64-11.19a13.77 13.77 0 0 0-10.25-8.93l-41.81-8.36a13.71 13.71 0 0 1-11-13.44v-32.33a13.71 13.71 0 0 1 11-13.44l41.81-8.36a13.77 13.77 0 0 0 10.22-8.84q2.08-5.72 4.64-11.19a13.78 13.78 0 0 0-1-13.49l-23.65-35.48a13.71 13.71 0 0 1 1.71-17.3l22.88-22.88a13.71 13.71 0 0 1 17.3-1.71l35.48 23.65a13.78 13.78 0 0 0 13.49 1q5.47-2.56 11.19-4.64a13.77 13.77 0 0 0 8.84-10.22l8.36-41.81a13.71 13.71 0 0 1 13.44-11h32.36a13.71 13.71 0 0 1 13.44 11l8.36 41.78a13.77 13.77 0 0 0 8.84 10.22q5.72 2.08 11.19 4.64a13.78 13.78 0 0 0 13.49-1L811 555.17a13.71 13.71 0 0 1 17.3 1.71l22.88 22.88a13.71 13.71 0 0 1 1.71 17.3l-23.65 35.48a13.78 13.78 0 0 0-1 13.49q2.56 5.47 4.64 11.19a13.77 13.77 0 0 0 10.22 8.84l41.9 8.37a13.71 13.71 0 0 1 11 13.44v32.36a13.71 13.71 0 0 1-11 13.45z" p-id="4142"></path></svg>