<?xml version="1.0" standalone="no"?><!DOCTYPE svg PUBLIC "-//W3C//DTD SVG 1.1//EN" "http://www.w3.org/Graphics/SVG/1.1/DTD/svg11.dtd"><svg t="1551348877641" class="icon" style="" viewBox="0 0 1030 1024" version="1.1" xmlns="http://www.w3.org/2000/svg" p-id="13513" xmlns:xlink="http://www.w3.org/1999/xlink" width="201.171875" height="200"><defs><style type="text/css"></style></defs><path d="M672.048 823.588l-4.28 0L667.768 662.903c-37.29-6.225-71.47-23.44-98.41-50.055-35.48-35.345-54.38-83-53.35-134.145 0.52-25.51 6.02-50.242 15.99-73.355l-127.41-130.655L142.83 543.124l0 280.464-5.7 0c-24.212 0-43.83 19.74-43.83 44.02l0 2.27 622.708 0 0-2.27C715.938 843.328 696.328 823.588 672.048 823.588zM517.634 798.148 293.877 798.148 293.877 571.029l223.692 0 0 227.119L517.634 798.148zM404.589 248.472l135.96 139.457c8.935-16.185 20.265-31.267 33.67-44.735 9.455-9.517 19.68-18 30.43-25.315L404.654 112.64 0.845 526.809l132.402 0L404.589 248.472zM1019.907 704.988l-85.65-85.21c-9.97-9.97-24.99-11.785-36.71-5.37l-54.39-54.06c42.67-64.942 37.16-150.922-17.54-205.372-63-62.542-167.3-59.76-233.019 6.407-65.71 66.172-67.91 170.475-4.85 233.079 55.94 55.61 144.51 59.435 209.579 13.27l55.29 54.845c-3.63 10.74-1.04 23.1 7.57 31.72l85.66 85.14c12.17 12.1 32.05 12.1 44.16-0.26l30.1-30.24C1032.217 736.708 1032.087 716.963 1019.907 704.988zM787.418 555.034c-47.39 47.655-122.3 50.5-166.78 6.215-44.55-44.28-42.28-119.125 5.11-166.78 47.33-47.845 122.24-50.63 166.79-6.215C837.138 432.542 834.808 507.384 787.418 555.034z" p-id="13514"></path></svg>