<?xml version="1.0" standalone="no"?><!DOCTYPE svg PUBLIC "-//W3C//DTD SVG 1.1//EN" "http://www.w3.org/Graphics/SVG/1.1/DTD/svg11.dtd"><svg t="1551157493237" class="icon" style="" viewBox="0 0 1024 1024" version="1.1" xmlns="http://www.w3.org/2000/svg" p-id="4270" xmlns:xlink="http://www.w3.org/1999/xlink" width="128" height="128"><defs><style type="text/css"></style></defs><path d="M867.328 953.856H675.84c-24.064 0-44.032-19.968-44.032-45.056v-308.224H392.192v308.224c0 24.576-19.456 45.056-44.032 45.056H156.672c-49.664 0-90.112-41.472-90.112-92.16V372.736l0.512-2.048c5.12-38.912 53.76-71.68 74.752-83.968l347.136-209.92c14.848-8.704 32.256-8.704 46.592 0l348.672 211.456 1.536 1.024c1.024 0.512 2.56 2.048 5.12 3.584 23.552 15.36 67.072 44.544 67.072 82.944v486.912c-0.512 49.664-40.96 91.136-90.624 91.136z m-175.104-61.44h175.616c16.384 0 30.208-13.824 30.208-30.72V376.832c-2.048-4.096-10.24-13.824-39.424-33.28-2.56-2.048-5.12-3.072-6.656-4.608L512 133.632 172.032 339.968c-19.968 11.776-41.472 30.208-45.056 38.912v482.816c0 16.896 13.312 30.72 30.208 30.72H332.8v-308.224c0-24.576 19.456-45.056 44.032-45.056h272.384c24.064 0 44.032 19.968 44.032 45.056v308.224zM125.952 379.904z m772.096-2.048z" p-id="4271"></path></svg>