<?xml version="1.0" standalone="no"?><!DOCTYPE svg PUBLIC "-//W3C//DTD SVG 1.1//EN" "http://www.w3.org/Graphics/SVG/1.1/DTD/svg11.dtd"><svg t="1551152377264" class="icon" style="" viewBox="0 0 1024 1024" version="1.1" xmlns="http://www.w3.org/2000/svg" p-id="3765" xmlns:xlink="http://www.w3.org/1999/xlink" width="128" height="128"><defs><style type="text/css"></style></defs><path d="M485 960 143.75 960c-8.75 0-16.25-7.5-16.25-16.25L127.5 80c0-8.75 7.5-16.25 16.25-16.25l736.25 0c8.75 0 16.25 7.5 16.25 16.25l0 576.25 63.75 27.5 0-603.75c0-43.75-36.25-80-80-80L143.75 0C100 0 63.75 36.25 63.75 80l0 863.75c0 43.75 36.25 80 80 80l341.25 0L485 960 485 960zM860 650c0-55-45-100-100-100-55 0-100 45-100 100 0 55 45 100 100 100C815 750 860 705 860 650L860 650zM893.75 783.75 893.75 783.75 875 783.75l-103.75 211.25L810 800l-50-50-50 50 38.75 195-103.75-211.25L625 783.75l0 0c-66.25 0-66.25 45-66.25 100l0 140 401.25 0L960 883.75C960 828.75 960 783.75 893.75 783.75L893.75 783.75zM228.75 167.5l562.5 0 0 58.75-562.5 0L228.75 167.5 228.75 167.5zM228.75 318.75l453.75 0 0 63.75-453.75 0L228.75 318.75 228.75 318.75zM228.75 481.25l368.75 0 0 58.75L228.75 540 228.75 481.25 228.75 481.25z" p-id="3766"></path></svg>