<?xml version="1.0" standalone="no"?><!DOCTYPE svg PUBLIC "-//W3C//DTD SVG 1.1//EN" "http://www.w3.org/Graphics/SVG/1.1/DTD/svg11.dtd"><svg t="1551428342988" class="icon" style="" viewBox="0 0 1024 1024" version="1.1" xmlns="http://www.w3.org/2000/svg" p-id="25924" xmlns:xlink="http://www.w3.org/1999/xlink" width="200" height="200"><defs><style type="text/css"></style></defs><path d="M921.6 303.104l-84.992 0L836.608 136.192c0-21.504-17.408-43.008-43.008-43.008L627.712 93.184 584.704 51.2 212.992 51.2c-21.504 0-43.008 17.408-43.008 43.008l0 208.896L84.992 303.104c-21.504 0-43.008 17.408-43.008 43.008l0 84.992c0 21.504 17.408 43.008 43.008 43.008l43.008 0 0 456.704c0 21.504 17.408 43.008 43.008 43.008l665.6 0c21.504 0 43.008-17.408 43.008-43.008l0-460.8L921.6 470.016c21.504 0 43.008-17.408 43.008-43.008l0-84.992C964.608 324.608 943.104 303.104 921.6 303.104zM793.6 136.192l0 166.912-84.992 0L708.608 179.2 665.6 136.192C665.6 136.192 793.6 136.192 793.6 136.192zM588.8 115.712l64.512 63.488-64.512 0L588.8 115.712zM212.992 94.208l332.8 0 0 102.4c0 13.312 8.192 21.504 21.504 21.504l102.4 0 0 84.992L212.992 303.104 212.992 94.208zM836.608 929.792l-665.6 0 0-460.8 665.6 0L836.608 929.792zM921.6 427.008 89.088 427.008l0-84.992L921.6 342.016 921.6 427.008zM379.904 677.888l251.904 0c21.504 0 43.008-17.408 43.008-43.008l0-43.008c0-21.504-17.408-43.008-43.008-43.008L379.904 548.864c-21.504 0-43.008 17.408-43.008 43.008l0 43.008C336.896 661.504 354.304 677.888 379.904 677.888zM379.904 596.992l251.904 0 0 43.008L379.904 640 379.904 596.992z" p-id="25925"></path></svg>