<?xml version="1.0" encoding="utf-8"?>
<!-- Svg Vector Icons : http://www.sfont.cn -->
<!DOCTYPE svg PUBLIC "-//W3C//DTD SVG 1.1//EN" "http://www.w3.org/Graphics/SVG/1.1/DTD/svg11.dtd">
<svg version="1.1" xmlns="http://www.w3.org/2000/svg" xmlns:xlink="http://www.w3.org/1999/xlink" x="0px" y="0px" viewBox="0 0 1000 1000" enable-background="new 0 0 1000 1000" xml:space="preserve">
<metadata> Svg Vector Icons : http://www.sfont.cn </metadata>
<g><path d="M788.4,10c2.9,2.4,6.2,4.5,8.5,7.4c9,11,3.5,25.2-12,30.5c-26.2,9-52.6,17.6-78.9,26.5c-3,1-5.9,2.1-9.8,3.5c6.5,13.1,12.7,25.5,19.3,38.7c17.6-8.8,34.1-17.7,51.2-25.3c7.6-3.4,16.4-5.4,24.7-5.7c21.3-0.8,42.7-0.5,64.1-0.1c16.2,0.3,25.4,14.2,18.6,27.3c-4.2,8.1-11.7,10.3-20.1,10.3c-20.1,0.1-40.2-0.2-60.3,0.2c-5.4,0.1-10.7,2.3-18.5,4.1c13.7,7.2,25.2,12.3,35.7,19c46.8,29.9,82.6,68.9,98.8,123.3c2.2,7.3,3.5,14.9,4.1,22.5c3,41.1-16.4,66.6-60.5,79.3c-39.3,11.3-79.2,12.3-119.4,5.5c-4.6-0.8-9.3-1.6-15.3-2.7c4.1,10.3,8,19.3,11.1,28.5c9.6,27.6,12.5,56,6.8,84.8c-8.7,44.1-34.8,68.8-81.2,73.1c-21.3,2-43.1-1.1-64.6-2c-3.1-0.1-6.1-0.9-11.5-1.7c24.2,32.2,30.5,66.7,25.3,105.7c-22.3-4.5-44.2-8-65.7-13.3c-61.4-15.2-118.1-40.5-167.6-80.5c-30-24.3-55.4-52.6-75.5-85.7c-2.7-4.4-2.2-7,1-10.8c29.1-34,65.7-42.9,108-32.3c11.9,3,23.6,7.3,36.2,11.3c-18.1-55-10.6-105.8,28-148.5c41-45.3,92.5-45,146.2-25.7c-4.6-60.2,14.3-108.9,66.6-143.3c-7.1-14.2-14.2-28.7-21.4-43.1c-1.8-3.7-3.7-7.4-5.6-11.1c-8-16.2-3.8-26.8,13.5-32.6c32.9-11.1,65.9-22,98.9-33c3.3-1.1,6.4-2.7,9.5-4C780.8,10,784.6,10,788.4,10z M861.4,254.6c1.1-40.1-35-88.7-81.8-92.7c-44.9-3.8-77,30.2-67.8,74.2c8.4,40.6,45.4,70.1,91.8,73.1C839.9,311.5,861.7,290.9,861.4,254.6z"/><path d="M187.4,10c77.2,19.9,141.3,63.4,201.5,113.4c37.7,31.3,71.2,66.5,99.2,108.6c-24.7,8.2-46.3,20.4-63.2,41.6c-4.3-4.8-8.1-8.9-11.7-13.1C373.2,213.7,331,169,282,131.3c-23.3-17.9-47.7-34.3-76.6-42.2c-7-1.9-14.4-3.1-21.6-3.4c-12.4-0.5-18.9,4.9-21.4,17.2c-4.2,20.9,0.1,41.4,5.2,61.4c24.6,97.1,94.5,159.8,194,174.9c5.6,0.8,11.1,1.7,15.4,2.4c-2.5,22.7-4.8,44.4-7.4,68.1c-17.6-4-36.2-7.5-54.4-12.6c-66.9-18.8-124.4-52.9-167.2-108.3C99.7,226.4,76.4,156.3,89,76.8c6.3-39.7,25.6-58.4,65.2-65.3c1.5-0.3,3-1,4.5-1.5C168.3,10,177.8,10,187.4,10z"/><path d="M384.6,990c-16.4-12.9-36.3-23.2-48.5-39.3c-23.5-31-53.1-57.7-69-94.3c-13.4-30.9-22.3-62.9-26.5-99c72.3,71.6,159,106.5,258.6,116.1c-31.5,28.9-65,50.9-104.6,62.3c-6.2,1.8-8.1,4.1-7.9,10.3c0.3,14.6,0,29.3-0.1,44C385.8,990,385.2,990,384.6,990z"/><path d="M399.9,10c30,6.6,57.4,18.7,82.1,37c50.3,37.1,86.6,85,110,142.8c1,2.5,1.5,5.8,0.7,8.2c-4.4,13.6-9.3,27-14.2,40.9c-12.5-4.3-25.2-8.3-37.5-13.3c-2.9-1.2-5.2-5.3-6.7-8.5c-13.3-30.2-28.5-59.2-49.8-84.6c-17.2-20.6-36.6-39.5-64.1-43.8c-16.1-2.5-28-10.7-40.7-18.9c-17.1-11.1-34.4-21.7-52.1-32.9C340.3,21.4,356.9,14.5,375,10C383.3,10,391.6,10,399.9,10z"/><path d="M593.5,727c-6.7,31.7-20.4,59.8-38.6,85.9c-1.3,1.9-5.5,3-8.1,2.7c-120-14.7-223.6-61.3-302.3-156c-2.2-2.6-4.1-7-3.5-10.1c6.2-31.8,12.9-63.6,19.6-95.4c0.2-1.1,1.2-2.1,2.2-3.6C345.7,660.2,460.2,709.9,593.5,727z"/></g>
</svg>