<?xml version="1.0" standalone="no"?><!DOCTYPE svg PUBLIC "-//W3C//DTD SVG 1.1//EN" "http://www.w3.org/Graphics/SVG/1.1/DTD/svg11.dtd"><svg t="1551771152396" class="icon" style="" viewBox="0 0 1024 1024" version="1.1" xmlns="http://www.w3.org/2000/svg" p-id="10076" xmlns:xlink="http://www.w3.org/1999/xlink" width="200" height="200"><defs><style type="text/css"></style></defs><path d="M533.333333 128C333.226667 128 170.666667 242.773333 170.666667 384c0 50.773333 21.333333 99.84 61.44 142.08A290.005333 290.005333 0 0 0 170.666667 704V853.333333c0 47.36 37.973333 85.333333 85.333333 85.333334h554.666667c47.36 0 85.333333-37.973333 85.333333-85.333334v-149.333333c0-52.053333-14.506667-103.68-42.666667-149.333333l85.333334-85.333334-128-128-89.6 89.6A393.856 393.856 0 0 0 533.333333 384c-78.933333 0-151.466667 22.613333-211.2 60.16C306.773333 425.386667 298.666667 405.333333 298.666667 384c0-76.373333 104.96-138.666667 234.666666-138.666667 61.013333 0 119.466667 14.08 163.413334 39.253334l86.186666-86.186667C715.52 153.173333 626.346667 128 533.333333 128m0 341.333333c14.506667 0 28.586667 1.706667 42.666667 3.84-132.693333 20.48-234.666667 134.826667-234.666667 273.493334V853.333333H256v-106.666666a277.333333 277.333333 0 0 1 277.333333-277.333334z" fill="" p-id="10077"></path></svg>