<?xml version="1.0" standalone="no"?><!DOCTYPE svg PUBLIC "-//W3C//DTD SVG 1.1//EN" "http://www.w3.org/Graphics/SVG/1.1/DTD/svg11.dtd"><svg t="1551683053211" class="icon" style="" viewBox="0 0 1024 1024" version="1.1" xmlns="http://www.w3.org/2000/svg" p-id="5129" xmlns:xlink="http://www.w3.org/1999/xlink" width="200" height="200"><defs><style type="text/css"></style></defs><path d="M859.9 236.2C757.6 177 568 65.5 512.7 65.3c-55.2 0.2-244 111.7-348.4 171.3-20.8 11.9-36 33-35.5 57.1 1.7 87.3 13.3 173.6 58.8 288.1C286 829.9 458.8 946.4 507.2 958.6c1.7 0.4 3.5 0.6 5.2 0.6 1.8 0 3.7-0.2 5.4-0.7 55.4-14.6 225.8-143.8 318.4-376.7 45.4-114.1 57.1-200.9 58.9-288.9 0.5-21.3-16-47.8-35.2-56.7z m-84.2 325.9c-80 200.9-223.5 307.5-263.6 323.7-41.9-15.7-181.3-115.4-264-323.8-39.9-100.6-50.1-170.5-51.7-248.1-0.2-7.6 5.1-13.5 10.1-16.3 142.4-80.3 274.2-159.8 306.1-160 32 0.1 170.8 82.1 304.9 159.6 3.6 1.9 10 11.6 9.9 16-1.5 78.2-11.8 148.7-51.7 248.9z" p-id="5130"></path><path d="M481.6 448.6c63.1 19.5 120.9-25.8 123.1-85.3 1.9-51.3-40.3-95.9-91.6-96.9-52.4-1-95.1 41.2-95.1 93.3v0.1c-0.1 40.1 25.2 76.9 63.6 88.8z m216.5 138V612c0 15.4-12.5 27.9-27.9 27.9H352.5c-15.4 0-27.9-12.5-27.9-27.9v-25.4c0-71 124.5-106.8 186.8-106.8s186.7 35.8 186.7 106.8z" p-id="5131"></path></svg>