<?xml version="1.0" standalone="no"?><!DOCTYPE svg PUBLIC "-//W3C//DTD SVG 1.1//EN" "http://www.w3.org/Graphics/SVG/1.1/DTD/svg11.dtd"><svg t="1551406125627" class="icon" style="" viewBox="0 0 1045 1024" version="1.1" xmlns="http://www.w3.org/2000/svg" p-id="4314" xmlns:xlink="http://www.w3.org/1999/xlink" width="204.1015625" height="200"><defs><style type="text/css"></style></defs><path d="M445.389648 890.434783a445.217391 445.217391 0 1 1 445.217391-445.217392 446.065424 446.065424 0 0 1-445.217391 445.217392z m0-805.63147a360.414079 360.414079 0 1 0 360.414079 360.414078 360.838095 360.838095 0 0 0-360.414079-360.414078z" p-id="4315"></path><path d="M975.410352 1017.639752a42.401656 42.401656 0 0 1-30.105176-12.720497l-212.008282-212.008282a42.401656 42.401656 0 1 1 59.786336-59.786335l212.008281 212.008281a42.401656 42.401656 0 0 1 0 59.786336 42.401656 42.401656 0 0 1-29.681159 12.720497zM445.389648 520.69234L278.751139 399.423602l166.638509-120.84472 166.214493 120.84472-166.214493 121.268738z" p-id="4316"></path><path d="M445.389648 541.893168a19.928778 19.928778 0 0 1-12.720497-4.240166L266.030642 416.808282a21.624845 21.624845 0 0 1-8.480331-17.38468 20.352795 20.352795 0 0 1 8.480331-16.960662L432.669151 260.770186a21.200828 21.200828 0 0 1 25.016977 0l166.63851 121.268737a20.352795 20.352795 0 0 1 8.480331 16.960663 21.624845 21.624845 0 0 1-8.480331 17.384679l-166.63851 120.844721a19.504762 19.504762 0 0 1-12.29648 4.664182zM314.792547 399.423602l130.597101 94.979711 130.173085-94.979711L445.389648 303.171843z" p-id="4317"></path><path d="M445.389648 632.632712a22.472878 22.472878 0 0 1-12.720497-3.816149l-166.638509-121.268737a21.200828 21.200828 0 0 1 25.016977-34.769358l154.342029 112.364389L599.30766 472.778468a21.200828 21.200828 0 0 1 25.016978 34.345342l-166.63851 121.268737a22.048861 22.048861 0 0 1-12.29648 4.240165z" p-id="4318"></path></svg>