<?xml version="1.0" standalone="no"?><!DOCTYPE svg PUBLIC "-//W3C//DTD SVG 1.1//EN" "http://www.w3.org/Graphics/SVG/1.1/DTD/svg11.dtd"><svg t="1551770814841" class="icon" style="" viewBox="0 0 1828 1024" version="1.1" xmlns="http://www.w3.org/2000/svg" p-id="4351" xmlns:xlink="http://www.w3.org/1999/xlink" width="357.03125" height="200"><defs><style type="text/css"></style></defs><path d="M1055.290514 353.777371c-77.238857-14.453029-165.1712-18.856229-258.735543-3.042742L990.544457 750.445714l838.231772-244.765257S1524.765257 21.752686 618.057143 178.190629c-5.354057 0.775314-10.005943 2.062629-15.272229 3.042742L514.779429 0 253.834971 30.061714l106.3936 220.598857C-189.966629 480.958171 53.803886 1024 53.803886 1024l839.460571-245.0432-230.692571-474.638629c413.973943-120.583314 759.7056 125.966629 759.7056 125.966629l-284.964572 78.043429-82.0224-154.550858zM280.927086 742.663314s-80.866743-181.0432 154.477714-336.135314l125.176686 259.657143-279.6544 76.478171z" fill="#5B5C5C" p-id="4352"></path></svg>