<?xml version="1.0" standalone="no"?><!DOCTYPE svg PUBLIC "-//W3C//DTD SVG 1.1//EN" "http://www.w3.org/Graphics/SVG/1.1/DTD/svg11.dtd"><svg t="1551157108770" class="icon" style="" viewBox="0 0 1024 1024" version="1.1" xmlns="http://www.w3.org/2000/svg" p-id="8746" xmlns:xlink="http://www.w3.org/1999/xlink" width="128" height="128"><defs><style type="text/css"></style></defs><path d="M823.04 199.68L514.56 85.333333 203.52 199.68c-20.053333 2.986667-37.12 20.053333-37.12 42.666667v410.88c0 25.6 57.173333 96.853333 108.373333 145.493333 68.693333 62.72 225.28 136.96 233.813334 139.946667h5.546666c5.546667-2.986667 165.546667-77.226667 233.813334-139.946667 51.2-48.64 108.373333-119.893333 108.373333-145.493333V242.346667c3.84-20.053333-13.226667-40.106667-33.28-42.666667z m-188.586667 398.506667c0 18.773333-15.36 34.133333-34.133333 34.133333H546.133333v86.613333c0 18.773333-15.36 34.133333-34.133333 34.133334s-34.133333-15.36-34.133333-34.133334v-206.08c-44.373333-14.506667-76.8-56.32-76.8-105.386666 0-61.44 49.493333-110.933333 110.933333-110.933334s110.933333 49.493333 110.933333 110.933334c0 49.493333-32.426667 91.306667-76.8 105.386666v51.2h54.186667c18.773333 0 34.133333 15.36 34.133333 34.133334z" fill="#4C4C4C" p-id="8747"></path></svg>