<?xml version="1.0" standalone="no"?><!DOCTYPE svg PUBLIC "-//W3C//DTD SVG 1.1//EN" "http://www.w3.org/Graphics/SVG/1.1/DTD/svg11.dtd"><svg t="1538986743818" class="icon" style="" viewBox="0 0 1024 1024" version="1.1" xmlns="http://www.w3.org/2000/svg" p-id="7161" xmlns:xlink="http://www.w3.org/1999/xlink" width="200" height="200"><defs><style type="text/css"></style></defs><path d="M853.333333 896C452.757333 896 128 571.242667 128 170.666667 128 147.093333 147.114667 128 170.666667 128L341.333333 128C364.906667 128 384 147.093333 384 170.666667L384 341.333333C384 353.130667 379.242667 363.797333 371.52 371.498667L282.602667 460.586667C344.106667 581.376 442.858667 680.085333 563.712 741.546667L652.501333 652.501333C660.224 644.757333 670.890667 640 682.666667 640L853.333333 640C876.906667 640 896 659.093333 896 682.666667L896 853.333333C896 876.906667 876.906667 896 853.333333 896ZM525.397333 379.861333 525.397333 292.842667C639.317333 292.928 731.925333 385.578667 731.925333 499.541333 731.925333 499.733333 731.882667 499.925333 731.882667 500.117333L644.864 500.117333C644.864 499.925333 644.928 499.733333 644.928 499.541333 644.928 433.6 591.296 379.946667 525.397333 379.861333ZM808.085333 500.117333C808.085333 499.925333 808.106667 499.733333 808.106667 499.541333 808.106667 343.616 681.28 216.746667 525.397333 216.661333L525.397333 129.642667C729.301333 129.728 895.125333 295.594667 895.125333 499.541333 895.125333 499.733333 895.104 499.925333 895.104 500.117333L808.085333 500.117333Z" p-id="7162"></path></svg>