<?xml version="1.0" standalone="no"?><!DOCTYPE svg PUBLIC "-//W3C//DTD SVG 1.1//EN" "http://www.w3.org/Graphics/SVG/1.1/DTD/svg11.dtd"><svg t="1535351916769" class="icon" style="" viewBox="0 0 1024 1024" version="1.1" xmlns="http://www.w3.org/2000/svg" p-id="15994" xmlns:xlink="http://www.w3.org/1999/xlink" width="200" height="200"><defs><style type="text/css"></style></defs><path d="M512 1024C229.239467 1024 0 794.760533 0 512 0 229.239467 229.239467 0 512 0 794.760533 0 1024 229.239467 1024 512 1024 794.760533 794.760533 1024 512 1024ZM543.3344 72.2944C546.4064 75.229867 548.2496 78.711467 548.113067 82.7392 547.293867 111.4112 503.944533 149.026133 485.1712 144.930133 466.3296 140.834133 477.7984 99.1232 464.6912 90.9312 451.652267 82.7392 397.653333 98.304 369.0496 117.077333 340.3776 135.918933 348.5696 151.483733 359.2192 150.664533 369.8688 149.845333 389.461333 131.003733 407.483733 126.907733 425.437867 122.811733 436.087467 140.834133 436.087467 166.161067 436.087467 191.556267 389.461333 186.641067 340.3776 199.68 291.362133 212.7872 260.232533 307.677867 255.3856 319.8976 250.4704 332.1856 225.0752 321.536 220.16 307.677867 215.313067 293.751467 198.109867 312.593067 185.002667 319.8976 171.963733 327.2704 171.144533 359.2192 174.421333 362.427733 177.629867 365.704533 195.652267 359.970133 198.109867 375.534933 200.567467 391.099733 207.121067 427.895467 192.375467 431.172267 177.629867 434.449067 157.218133 393.557333 153.122133 377.173333 149.7088 363.588267 136.669867 306.3808 132.437333 287.607467 93.457067 353.348267 71.0656 430.011733 71.0656 512 71.0656 755.5072 268.4928 952.9344 512 952.9344 676.590933 952.9344 820.0192 862.754133 895.7952 729.088 876.1344 744.584533 851.285333 758.101333 822.8864 758.101333 770.525867 758.101333 828.347733 631.671467 828.347733 631.671467 828.347733 631.671467 864.597333 486.6048 772.983467 491.52 645.3248 498.346667 645.666133 387.4816 649.693867 346.794667 655.223467 290.338133 679.594667 272.247467 717.073067 254.5664 775.236267 227.259733 858.862933 265.284267 858.862933 265.284267 870.8096 271.086933 881.322667 278.254933 890.88 286.446933 818.9952 165.888 691.268267 82.670933 543.3344 72.2944ZM371.165867 888.695467C355.805867 898.730667 339.5584 870.263467 315.528533 846.984533 297.5744 829.576533 277.9136 773.393067 280.3712 742.263467 282.8288 711.202133 237.021867 649.898667 214.971733 631.057067 192.9216 612.283733 190.464 472.8832 204.322133 458.478933 251.767467 409.463467 363.1104 506.606933 377.719467 520.669867 400.5888 542.72 448.648533 530.500267 478.890667 581.973333 509.201067 633.514667 379.357867 749.636267 362.154667 787.2512 345.019733 824.866133 392.3968 874.769067 371.165867 888.695467Z" p-id="15995"></path></svg>