<?xml version="1.0" standalone="no"?><!DOCTYPE svg PUBLIC "-//W3C//DTD SVG 1.1//EN" "http://www.w3.org/Graphics/SVG/1.1/DTD/svg11.dtd"><svg t="1551156751206" class="icon" style="" viewBox="0 0 1024 1024" version="1.1" xmlns="http://www.w3.org/2000/svg" p-id="18045" xmlns:xlink="http://www.w3.org/1999/xlink" width="128" height="128"><defs><style type="text/css"></style></defs><path d="M439.04 92.8a97.92 97.92 0 0 0 35.84 133.76 97.92 97.92 0 0 0 143.36-110.08 97.92 97.92 0 0 0-179.2-23.68zM953.6 791.68a97.92 97.92 0 1 0-179.2-23.68 96.64 96.64 0 0 0 45.44 59.52 97.92 97.92 0 0 0 133.76-35.84zM832 576a166.4 166.4 0 0 1 73.6 0V320l-218.88-128a163.84 163.84 0 0 1-36.48 64L832 362.24zM94.72 693.76A97.92 97.92 0 0 0 128 827.52a97.92 97.92 0 0 0 133.76-35.84 97.92 97.92 0 0 0-84.48-146.56 97.92 97.92 0 0 0-85.12 48.64zM216.32 576V362.24L398.08 256a170.88 170.88 0 0 1-37.12-64L142.72 320v256a167.04 167.04 0 0 1 73.6 0zM704 791.04L524.16 896l-180.48-104.96a171.52 171.52 0 0 1-15.36 37.76 173.44 173.44 0 0 1-19.2 26.88l215.68 124.16 216.32-124.8a170.88 170.88 0 0 1-37.12-64z" fill="#040c32" p-id="18046"></path></svg>