<?xml version="1.0" standalone="no"?><!DOCTYPE svg PUBLIC "-//W3C//DTD SVG 1.1//EN" "http://www.w3.org/Graphics/SVG/1.1/DTD/svg11.dtd"><svg t="1551153642710" class="icon" style="" viewBox="0 0 1024 1024" version="1.1" xmlns="http://www.w3.org/2000/svg" p-id="17258" xmlns:xlink="http://www.w3.org/1999/xlink" width="128" height="128"><defs><style type="text/css"></style></defs><path d="M478.179556 350.449778c0 5.617778-0.156444 11.207111-0.867556 16.654222-6.016 56.647111-41.671111 104.789333-91.491556 127.729778-16.213333 7.694222-33.706667 12.444444-52.039111 14.264889-5.020444 0.440889-9.941333 0.725333-14.961778 0.725333-1.550222 0-3.100444 0-4.608-0.284444-23.665778-0.583111-45.767111-6.314667-65.621333-16.099556-12.302222-6.030222-23.637333-13.568-33.863111-22.371556-29.795556-25.756444-50.076444-62.407111-54.4-103.964444-0.554667-5.447111-0.853333-11.036444-0.853333-16.654222 0-30.336 8.248889-58.325333 22.784-82.375111 0.440889-0.711111 0.867556-1.393778 1.137778-1.962667 22.101333-35.541333 57.784889-61.411556 99.754667-71.068444 11.491556-2.517333 23.352889-3.911111 35.683556-3.911111 65.180444 0 121.287111 38.897778 145.777778 95.004444 0 0.128 0.270222 0.128 0.270222 0.398222C473.272889 305.976889 478.179556 327.651556 478.179556 350.449778zM411.576889 503.651556c-8.248889-3.370667-16.654222-6.442667-25.756444-8.817778-42.510222-11.335111-92.472889-11.889778-137.230222-1.408-11.192889 2.801778-22.371556 6.144-32.867556 10.225778-0.284444 0.128-0.725333 0.270222-0.995556 0.412444-23.352889 9.244444-44.643556 19.313778-63.772444 29.795556C43.363556 592.896 1.408 668.16 3.356444 729.031111c2.232889 71.921778 292.252444 69.390222 316.743111 69.532444 24.334222 0.298667 291.399111 1.664 292.792889-69.532444C610.929778 629.973333 468.508444 527.274667 411.576889 503.651556zM323.441778 745.528889l-62.947556-51.626667 53.731556-184.362667c1.507556 0.284444 3.057778 0.284444 4.608 0.284444 5.020444 0 9.941333-0.284444 14.961778-0.725333l45.184 185.784889L323.441778 745.528889zM474.168889 287.957333M497.777778 469.333333l213.333333 0 0 28.444444-213.333333 0 0-28.444444ZM682.666667 184.888889l28.444444 0 0 597.333333-28.444444 0 0-597.333333ZM682.666667 184.888889l241.777778 0 0 28.444444-241.777778 0 0-28.444444ZM696.888889 469.333333l227.555556 0 0 28.444444-227.555556 0 0-28.444444ZM682.666667 753.777778l241.777778 0 0 28.444444-241.777778 0 0-28.444444ZM977.777778 200.888889m-33.777778 0a2.375 2.375 0 1 0 67.555556 0 2.375 2.375 0 1 0-67.555556 0ZM977.777778 485.333333m-33.777778 0a2.375 2.375 0 1 0 67.555556 0 2.375 2.375 0 1 0-67.555556 0ZM977.777778 769.777778m-33.777778 0a2.375 2.375 0 1 0 67.555556 0 2.375 2.375 0 1 0-67.555556 0Z" p-id="17259"></path></svg>