<?xml version="1.0" standalone="no"?><!DOCTYPE svg PUBLIC "-//W3C//DTD SVG 1.1//EN" "http://www.w3.org/Graphics/SVG/1.1/DTD/svg11.dtd"><svg t="1551348541750" class="icon" style="" viewBox="0 0 1024 1024" version="1.1" xmlns="http://www.w3.org/2000/svg" p-id="4268" xmlns:xlink="http://www.w3.org/1999/xlink" width="200" height="200"><defs><style type="text/css"></style></defs><path d="M664.7 645.4c-53 0-96 43-96 96s43 96 96 96 96-43 96-96-43-96-96-96zM819 64H205c-35.3 0-64 28.7-64 64v768c0 35.3 28.7 64 64 64h614c5.8 0 11.4-0.8 16.8-2.2l-82.9-82.9c-25.3 16.8-55.6 26.5-88.2 26.5-88.4 0-160-71.6-160-160s71.6-160 160-160 160 71.6 160 160c0 32.6-9.8 62.9-26.5 88.2l82.7 82.8c1.4-5.2 2.1-10.7 2.1-16.4V128c0-35.3-28.7-64-64-64zM470.6 502.8c-5.8 5.8-13.8 9.4-22.6 9.4l-128-0.2c-17.6 0-32-14.4-32-32 0-8.8 3.6-16.8 9.4-22.6 5.8-5.8 13.8-9.4 22.6-9.4l128.1 0.2c17.6 0 32 14.4 32 32-0.1 8.8-3.7 16.8-9.5 22.6z m256-128.2c-5.8 5.8-13.8 9.4-22.6 9.4H320c-17.6 0-32-14.4-32-32 0-8.8 3.6-16.8 9.4-22.6 5.8-5.8 13.8-9.4 22.6-9.4h384c17.6 0 32 14.4 32 32 0 8.8-3.6 16.8-9.4 22.6z m0-128c-5.8 5.8-13.8 9.4-22.6 9.4H320c-17.6 0-32-14.4-32-32 0-8.8 3.6-16.8 9.4-22.6 5.8-5.8 13.8-9.4 22.6-9.4h384c17.6 0 32 14.4 32 32 0 8.8-3.6 16.8-9.4 22.6z" p-id="4269"></path></svg>