<?xml version="1.0" standalone="no"?><!DOCTYPE svg PUBLIC "-//W3C//DTD SVG 1.1//EN" "http://www.w3.org/Graphics/SVG/1.1/DTD/svg11.dtd"><svg t="1552201577097" class="icon" style="" viewBox="0 0 1024 1024" version="1.1" xmlns="http://www.w3.org/2000/svg" p-id="4117" xmlns:xlink="http://www.w3.org/1999/xlink" width="200" height="200"><defs><style type="text/css"></style></defs><path d="M835.584 514.496l-318.944 0 0 416.256c0 0-222.784-107.488-319.936-416.736l319.936 0 0-401.024c179.552 151.296 369.504 105.568 369.504 105.568-3.488 175.84-50.528 295.968-50.528 295.968l0 0zM942.112 103.84c-211.552 155.264-427.904-82.496-427.904-82.496-228.32 242.56-425.44 84.928-425.44 84.928-48.064 696.16 425.44 895.104 425.44 895.104 514.368-271.712 427.904-897.536 427.904-897.536l0 0z" p-id="4118"></path></svg>