<?xml version="1.0" standalone="no"?><!DOCTYPE svg PUBLIC "-//W3C//DTD SVG 1.1//EN" "http://www.w3.org/Graphics/SVG/1.1/DTD/svg11.dtd"><svg t="1551771074253" class="icon" style="" viewBox="0 0 1024 1024" version="1.1" xmlns="http://www.w3.org/2000/svg" p-id="9529" xmlns:xlink="http://www.w3.org/1999/xlink" width="200" height="200"><defs><style type="text/css"></style></defs><path d="M814.933389 224.916063c-9.399748-29.765867-22.716057-58.356766-39.948927-84.206072-17.624527-25.849306-38.382303-48.957019-62.273328-68.931482-24.282681-19.582807-50.915299-35.640709-79.897854-47.78205-28.982555-11.749684-59.531735-19.191151-90.47257-22.716057C527.06612 0.49709 511.79153-0.677878 496.125284 0.49709l-11.749684 0.783312c-1.958281 0-3.916561 0.391656-5.874843 0.391656L472.625915 2.455371c-7.833123 1.174968-15.27459 2.349937-23.107713 3.524905-30.54918 6.266498-60.315047 16.841214-87.730977 31.332492-27.41593 14.882934-52.481924 33.682429-74.806324 55.223517C265.048157 114.860685 246.640318 139.926679 231.757384 167.342609c-14.491277 27.41593-25.065993 57.181798-31.332492 87.730977-1.174968 7.833123-2.349937 15.27459-3.524905 23.107713l-0.783313 5.874842c-0.391656 1.958281-0.391656 3.916561-0.391656 5.874843l-0.783312 11.749684c-1.174968 15.666246 0 30.940836 0.783312 46.607082 3.524905 30.940836 10.574716 61.490015 22.716057 90.47257 12.141341 28.590899 28.199243 55.615173 47.78205 79.897854 19.974464 23.891025 43.082176 45.040457 68.931482 62.273328 25.849306 17.232871 54.440205 30.54918 84.206072 39.948927 29.765867 9.008091 61.098359 13.316309 92.039195 13.707965 7.441467 0.391656 14.491277 1.174968 21.149432 3.133249 6.658155 2.349937 12.924653 5.09153 19.191151 9.008092 5.874842 4.308218 11.358028 9.008091 16.057902 14.491277 4.308218 5.874842 7.833123 11.749684 10.966372 18.407839 2.741593 6.658155 3.916561 13.316309 5.09153 20.36612-0.391656 3.524905 0.783312 7.441467 0 10.966372v3.916561l-0.391656 1.174969c-0.391656 1.566625-0.783312 3.524905-0.783312 5.09153-1.566625 6.658155-3.916561 13.707965-7.049811 19.974463-3.524905 6.266498-7.833123 11.749684-12.924653 17.232871-5.483186 5.09153-10.966372 9.008091-17.23287 12.924653-6.266498 3.133249-12.924653 5.483186-19.974464 7.04981-1.958281 0-3.524905 0.391656-5.09153 0.783313l-1.174968 0.391656h-3.916562c-3.524905 0.783312-7.049811-0.391656-10.966372 0-7.049811-1.174968-14.099621-2.349937-20.36612-5.09153-6.266498-3.133249-12.532997-6.658155-18.407839-10.966372-5.483186-4.699874-10.18306-10.18306-14.491277-16.057902-3.916561-5.874842-6.658155-12.532997-9.008091-19.191152-1.958281-6.658155-2.741593-13.707965-3.13325-21.149432h-18.799495c0.391656 9.008091 1.566625 18.016183 3.916562 26.632618 2.741593 8.224779 6.658155 16.449558 11.358028 24.282682 5.09153 7.441467 11.358028 14.099621 18.016183 19.974463 7.049811 5.483186 14.882934 10.18306 23.107713 13.707965 8.224779 3.524905 16.841214 5.09153 25.849305 6.658155 4.699874 0 9.008091 0.783312 13.707966 0h5.09153l1.566624-0.391656c2.349937-0.391656 4.308218-0.783312 6.658155-0.783312 8.616435-1.958281 17.232871-4.699874 25.065993-9.008092 7.833123-4.308218 14.882934-9.791404 21.541088-16.057902 6.266498-6.658155 11.749684-13.707965 16.057902-21.541088 4.308218-7.833123 7.049811-16.449558 9.008092-25.065994 0.391656-2.349937 0.391656-4.308218 0.783312-6.658154l0.391656-1.566625v-5.09153c0.783312-4.699874-0.391656-9.008091 0-13.707965-1.174968-9.008091-3.133249-17.624527-6.658154-25.849306-3.524905-8.224779-8.224779-16.057902-13.707966-23.107712-5.874842-6.658155-12.532997-12.924653-19.974463-18.016183-7.441467-4.699874-15.666246-8.616435-24.282681-11.358029-8.616435-2.349937-17.624527-3.524905-26.632618-3.916561-28.982555-0.391656-58.356766-4.308218-86.556009-12.924653-28.199243-8.616435-54.831861-21.149432-79.114542-37.59899-24.282681-16.449558-45.823769-36.424022-64.623265-58.748422-18.407839-22.716057-33.682429-48.173706-45.040457-75.197981-10.966372-27.807587-17.624527-56.398485-20.757775-85.38104-0.783312-14.491277-1.958281-29.374211-0.783313-43.865489l0.783313-10.966372c0-1.958281 0-3.524905 0.391656-5.483186l0.783312-5.483186c1.174968-7.441467 1.958281-14.491277 3.524905-21.541088 5.874842-28.590899 15.666246-56.790141 29.374211-82.639447 14.099621-25.849306 31.724148-49.348675 52.090268-70.106451 20.757776-20.36612 44.648801-37.990646 70.106451-52.090268 25.849306-13.707965 54.048548-23.499369 82.639447-29.374211 7.049811-1.174968 14.491277-2.349937 21.541088-3.524905l5.483186-0.783312c1.958281-0.391656 3.524905-0.391656 5.483186-0.391657l10.966372-0.783312c14.491277-1.174968 28.982555 0 43.865489 0.783312 28.982555 3.133249 57.96511 10.18306 84.989384 21.149432 27.024274 11.358028 52.481924 26.632618 75.197981 45.040457 22.3244 18.799495 42.298864 40.732239 58.748422 64.623265 16.057902 24.282681 28.590899 51.306955 37.59899 79.114542 8.616435 28.199243 12.532997 57.573454 12.924653 86.556009h18.799495c-1.174968-30.54918-5.483186-61.490015-14.491277-91.647539z" fill="#F2F2F2" p-id="9530"></path><path d="M796.917206 230.399249c-8.616435-28.199243-21.149432-54.831861-37.59899-79.114542-16.449558-24.282681-36.424022-45.823769-58.748423-64.623264-22.716057-18.407839-48.173706-33.682429-75.19798-45.040457-26.632618-11.358028-55.615173-18.016183-84.597728-21.541089-14.491277-0.783312-28.982555-1.958281-43.865489-0.783312l-10.966372 0.783312c-1.958281 0-3.524905 0-5.483186 0.391657l-5.483186 0.783312c-7.441467 1.174968-14.491277 1.958281-21.541088 3.524905-28.590899 5.874842-56.790141 15.666246-82.639447 29.374211-25.849306 14.099621-49.348675 31.724148-70.106451 52.090268-20.36612 20.757776-37.990646 44.648801-52.090268 70.106451-13.707965 25.849306-23.499369 54.048548-29.374211 82.639447-1.174968 7.049811-2.349937 14.491277-3.524905 21.541088L214.91617 286.014422c-0.391656 1.958281-0.391656 3.524905-0.391657 5.483186L214.132857 302.46398c-1.174968 14.491277 0 28.982555 0.783313 43.865489 3.133249 28.982555 10.18306 57.96511 21.149432 84.989384 11.358028 27.024274 26.632618 52.481924 45.040457 75.197981 18.799495 22.3244 40.732239 42.298864 64.623264 58.748422 24.282681 16.057902 51.306955 28.590899 79.114542 37.59899 28.199243 8.616435 57.573454 12.532997 86.556009 12.924653 9.008091 0.391656 18.016183 1.566625 26.632618 3.916561 8.224779 2.741593 16.449558 6.658155 24.282681 11.358029 7.441467 5.09153 14.099621 11.358028 19.974464 18.016182 5.483186 7.049811 10.18306 14.882934 13.707965 23.107713 3.524905 8.224779 5.09153 16.841214 6.658154 25.849306 0 4.699874 0.783312 9.008091 0 13.707965v5.09153l-0.391656 1.566625c-0.391656 2.349937-0.783312 4.308218-0.783312 6.658154-1.958281 8.616435-4.699874 17.232871-9.008092 25.065994-4.308218 7.833123-9.791404 14.882934-16.057902 21.541088-6.658155 6.266498-13.707965 11.749684-21.541088 16.057902-7.833123 4.308218-16.449558 7.049811-25.065993 9.008091-2.349937 0.391656-4.308218 0.391656-6.658155 0.783313l-1.566624 0.391656h-5.09153c-4.699874 0.783312-9.008091-0.391656-13.707965 0-9.008091-1.174968-17.624527-3.133249-25.849306-6.658155-8.224779-3.524905-16.057902-8.224779-23.107713-13.707965-6.658155-5.874842-12.924653-12.532997-18.016183-19.974463-4.699874-7.441467-8.616435-15.666246-11.358028-24.282682-2.349937-8.616435-3.524905-17.624527-3.916562-26.632618h-18.799495c0.391656 10.966372 1.566625 21.541088 4.699874 32.115804 3.524905 10.18306 7.833123 19.974464 13.707965 28.982555 6.266498 9.008091 13.707965 16.841214 21.932745 23.891025 8.616435 6.658155 18.016183 12.141341 27.807586 16.449559 10.18306 3.916561 20.36612 6.266498 31.332492 7.833123 5.483186 0 10.966372 0.783312 16.449558 0H523.541214l1.958281-0.391657c2.741593-0.391656 5.483186-0.783312 7.833123-1.174968 10.574716-2.349937 20.757776-5.874842 30.157524-10.966372 9.399748-5.483186 18.016183-11.749684 26.240961-19.191151 7.441467-7.833123 14.099621-16.841214 19.191152-26.240962 5.09153-9.399748 8.224779-19.974464 10.966372-30.157524 0.391656-2.741593 0.783312-5.483186 1.174968-7.833123l0.391656-1.95828v-5.874843c0.783312-5.483186-0.391656-10.966372 0-16.449558-1.566625-10.574716-3.916561-21.149432-7.833122-31.332492-4.308218-9.791404-9.791404-19.191151-16.449559-27.807586-7.049811-8.224779-15.27459-15.666246-23.891025-21.932745-9.008091-5.874842-18.799495-10.574716-28.982555-13.707965-10.18306-3.133249-21.149432-4.308218-32.115804-4.699874-27.41593-0.391656-54.831861-4.308218-81.072823-12.14134-26.240962-8.224779-51.306955-19.974464-74.414668-35.249053-22.716057-15.666246-43.082176-34.074085-60.706703-54.831861-17.232871-21.149432-31.332492-45.040457-42.298864-70.498107-10.574716-25.45765-16.841214-52.481924-19.974463-79.506198-0.783312-13.707965-1.958281-27.41593-0.783313-41.123896l0.391657-10.183059c0-1.566625 0-3.524905 0.391656-5.09153l0.783312-5.09153c0.783312-6.658155 1.958281-13.707965 3.133249-20.36612 5.483186-27.024274 14.882934-53.265236 27.807587-77.547917 13.316309-24.282681 29.765867-46.215425 48.957018-65.798233 19.582807-19.191151 41.907208-35.640709 65.798233-48.957019 24.282681-12.924653 50.523643-21.932744 77.547918-27.807586 6.658155-1.174968 13.707965-2.349937 20.366119-3.133249l5.09153-0.783313c1.566625 0 3.524905-0.391656 5.09153-0.391656l10.18306-0.391656c13.707965-1.174968 27.41593 0 41.123895 0.783312 27.41593 3.133249 54.048548 9.399748 79.506199 19.974464 25.45765 10.966372 48.957019 25.065993 70.498106 42.298864 21.149432 17.624527 39.557271 37.990646 54.831861 60.706703 15.27459 22.716057 27.024274 48.173706 35.249053 74.414668 7.833123 26.240962 11.749684 53.656892 12.141341 81.072823h18.799495c-1.174968-28.590899-5.09153-57.96511-13.707965-86.164353z" fill="" p-id="9531"></path><path d="M778.901023 235.882435c-8.224779-26.240962-19.974464-51.306955-35.249053-74.414668-15.666246-22.716057-34.074085-43.082176-54.831861-60.706703-21.149432-17.232871-45.040457-31.332492-70.498107-42.298864-25.45765-10.574716-52.481924-16.841214-79.506198-19.974464-13.707965-0.783312-27.41593-1.958281-41.123895-0.783312l-10.18306 0.391656c-1.566625 0-3.524905 0-5.09153 0.391656l-5.09153 0.783313c-6.658155 0.783312-13.707965 1.958281-20.36612 3.133249-27.024274 5.483186-53.265236 14.882934-77.547917 27.807586-24.282681 13.316309-46.215425 29.765867-65.798233 48.957019-19.191151 19.582807-35.640709 41.907208-48.957019 65.798233-12.532997 24.674337-21.541088 50.915299-27.024274 77.547917-1.174968 6.658155-2.349937 13.707965-3.133249 20.36612l-0.783312 5.09153c0 1.566625-0.391656 3.524905-0.391656 5.09153l-0.391657 10.18306c-1.174968 13.707965 0 27.41593 0.783313 41.123895 3.133249 27.41593 9.399748 54.048548 19.974463 79.506198 10.966372 25.45765 25.065993 48.957019 42.298864 70.498107 17.624527 21.149432 37.990646 39.557271 60.706703 54.831861 22.716057 15.27459 48.173706 27.024274 74.414668 35.249053 26.240962 7.833123 53.656892 11.749684 81.072823 12.141341 10.966372 0.391656 21.541088 1.566625 32.115804 4.699873 10.18306 3.524905 19.974464 7.833123 28.982555 13.707966 9.008091 6.266498 16.841214 13.707965 23.891025 21.932744 6.658155 8.616435 12.141341 18.016183 16.449559 27.807586 3.916561 10.18306 6.266498 20.36612 7.833122 31.332492 0 5.483186 0.783312 10.966372 0 16.449558v5.874843l-0.391656 1.95828c-0.391656 2.741593-0.783312 5.483186-1.174968 7.833123-2.349937 10.574716-5.874842 20.757776-10.966372 30.157524-5.483186 9.399748-11.749684 18.016183-19.191152 26.240962-7.833123 7.441467-16.841214 14.099621-26.240961 19.191151-9.399748 5.09153-19.974464 8.224779-30.157524 10.966372-2.741593 0.391656-5.483186 0.783312-7.833123 1.174969l-1.958281 0.391656h-5.874842c-5.483186 0.783312-10.966372-0.391656-16.449558 0-10.574716-1.566625-21.149432-3.916561-31.332492-7.833123-9.791404-4.308218-19.191151-9.791404-27.807586-16.449558-8.224779-7.049811-15.666246-15.27459-21.932745-23.891025-5.874842-9.008091-10.574716-18.799495-13.707965-28.982555-3.133249-10.18306-4.308218-21.149432-4.699874-32.115805H382.545001c0.391656 12.924653 1.958281 25.45765 5.483186 37.598991 3.916561 12.141341 9.399748 23.499369 16.057902 34.074085 7.441467 10.574716 15.666246 19.974464 25.45765 28.199242 9.791404 7.833123 20.757776 14.491277 32.50746 19.582808 11.749684 4.699874 23.891025 7.441467 36.815678 9.008091 6.266498 0 12.532997 1.174968 19.191151 0.391656l4.699874-0.391656h2.349937l2.349937-0.391656c3.133249-0.391656 6.266498-1.174968 9.399747-1.566625 12.141341-2.741593 24.282681-6.658155 35.64071-12.532996 10.966372-6.266498 21.149432-13.707965 30.549179-22.716057 8.616435-9.008091 16.449558-19.582807 22.716057-30.54918 5.874842-11.358028 9.791404-23.107713 12.532997-35.640709 0.391656-3.133249 0.783312-6.266498 1.566624-9.399748l0.391657-2.349937v-2.349936l0.391656-4.699874c0.783312-6.266498 0-12.532997-0.391656-19.191151-1.566625-12.532997-4.308218-25.065993-9.008092-36.815678-5.09153-11.749684-11.358028-22.716057-19.582807-32.507461-8.224779-9.791404-17.624527-18.407839-28.199243-25.457649-10.574716-7.049811-22.3244-12.141341-34.074085-16.057902-12.141341-3.524905-24.674337-5.09153-37.59899-5.483187-25.45765-0.391656-50.915299-3.916561-75.589637-11.358028-24.282681-7.833123-47.78205-18.799495-69.323138-32.899116-21.149432-14.491277-40.340583-31.724148-56.790141-51.306956-16.057902-19.974464-29.374211-41.907208-39.165615-65.798233-9.791404-23.891025-15.666246-48.957019-18.407839-74.414668-0.783312-12.924653-1.958281-25.45765-0.783312-38.382302l0.391656-9.399748c0-1.566625 0-3.133249 0.391656-4.699874l0.783312-4.699873c0.783312-6.266498 1.958281-12.532997 2.741593-18.799496 5.483186-25.065993 13.707965-49.348675 25.849306-72.064731 12.141341-22.3244 27.807587-43.082176 45.432113-61.490015 18.407839-18.016183 38.773959-33.290773 61.490015-45.432113 22.716057-12.141341 46.998738-20.36612 72.064732-25.849306 6.266498-1.174968 12.532997-1.958281 18.799495-2.741593l4.699874-0.783312c1.566625 0 3.133249-0.391656 4.699873-0.391657l9.399748-0.391656c12.924653-1.174968 25.45765 0 38.382302 0.783313 25.45765 2.741593 50.523643 9.008091 74.414669 18.407839 23.499369 10.18306 45.823769 23.107713 65.798233 39.165614 19.582807 16.449558 36.815678 35.640709 51.306955 56.790142 14.099621 21.541088 25.065993 44.648801 32.899116 69.323138 7.441467 24.674337 10.966372 50.131987 11.358029 75.589637h18.799495c-0.783312-27.024274-4.308218-54.440205-12.532997-81.072823z" fill="#F2F2F2" p-id="9532"></path><path d="M761.276496 241.365621c-7.833123-24.282681-18.799495-47.78205-32.899116-69.323138-14.491277-21.149432-31.724148-40.340583-51.306955-56.790142-19.974464-16.057902-41.907208-29.374211-65.798233-39.165614-23.891025-9.791404-48.957019-15.666246-74.414669-18.407839-12.924653-0.783312-25.45765-1.958281-38.382302-0.783313l-9.399748 0.391656c-1.566625 0-3.133249 0-4.699873 0.391657l-4.699874 0.783312c-6.266498 0.783312-12.532997 1.958281-18.799495 2.741593-25.065993 5.483186-49.348675 13.707965-72.064732 25.849306-22.3244 12.141341-43.082176 27.807587-61.490015 45.432113-18.016183 18.407839-33.290773 38.773959-45.432113 61.490015-12.141341 22.716057-20.36612 46.998738-25.849306 72.064731-1.174968 6.266498-1.958281 12.532997-2.741593 18.799496l-0.783312 5.09153c0 1.566625-0.391656 3.133249-0.391656 4.699873l-0.391656 9.399748c-1.174968 12.924653 0 25.45765 0.783312 38.382302 2.741593 25.45765 9.008091 50.523643 18.407839 74.414669 10.18306 23.499369 23.107713 45.823769 39.165615 65.798232 16.449558 19.582807 35.640709 36.815678 56.790141 51.306956 21.541088 14.099621 44.648801 25.065993 69.323138 32.899116 24.674337 7.441467 50.131987 10.966372 75.589637 11.358029 12.924653 0.391656 25.45765 1.958281 37.59899 5.483186 12.141341 3.916561 23.499369 9.399748 34.074085 16.057902 10.574716 7.441467 19.974464 15.666246 28.199243 25.457649 7.833123 9.791404 14.491277 20.757776 19.582807 32.507461 4.699874 11.749684 7.441467 23.891025 9.008092 36.815678 0 6.266498 1.174968 12.532997 0.391656 19.191151l-0.391656 4.699874v2.349937l-0.391657 2.349936c-0.391656 3.133249-1.174968 6.266498-1.566624 9.399748-2.741593 12.141341-6.658155 24.282681-12.532997 35.64071-6.266498 10.966372-13.707965 21.149432-22.716057 30.549179-9.008091 8.616435-19.582807 16.449558-30.549179 22.716057-11.358028 5.874842-23.107713 9.791404-35.64071 12.532996-3.133249 0.391656-6.266498 0.783312-9.399747 1.566625l-2.349937 0.391656h-2.349937l-4.699874 0.391656c-6.266498 0.783312-12.532997 0-19.191151-0.391656-12.532997-1.566625-25.065993-4.308218-36.815678-9.008091-11.749684-5.09153-22.716057-11.358028-32.50746-19.582808-9.791404-8.224779-18.407839-17.624527-25.45765-28.199242-7.049811-10.574716-12.141341-22.3244-16.057902-34.074085-3.524905-12.141341-5.09153-24.674337-5.483186-37.59899h-18.799495c0.391656 14.491277 2.349937 28.982555 6.266498 43.082176 4.308218 13.707965 10.574716 27.024274 18.407839 39.165615 8.224779 11.749684 18.016183 22.716057 29.374211 32.115804 11.358028 9.008091 23.891025 16.449558 37.207334 22.3244 13.316309 5.483186 27.807587 8.616435 41.907208 10.574716 7.441467 0 14.491277 1.174968 21.932745 0.391656l5.483186-0.391656h2.741593l2.741593-0.391656 10.574716-1.566624c14.099621-3.133249 27.807587-7.833123 40.732239-14.491278 12.532997-7.049811 24.282681-15.666246 34.857397-25.849306 10.18306-10.574716 18.799495-22.3244 25.849306-34.857397 6.658155-12.924653 11.358028-26.632618 14.491278-40.732239l1.566624-10.574716 0.391656-2.741593v-2.741593l0.391657-5.483186c0.783312-7.441467 0-14.491277-0.391657-21.932745-1.958281-14.491277-5.09153-28.590899-10.574716-41.907208-5.874842-13.316309-13.316309-25.849306-22.3244-37.207334-9.399748-10.966372-20.36612-20.757776-32.115804-29.374211-12.141341-7.833123-25.45765-14.099621-39.165615-18.407839-14.099621-4.308218-28.199243-5.874842-43.082176-6.266498-23.499369-0.391656-47.390394-3.524905-70.106451-10.574716-22.716057-7.049811-44.257145-17.232871-64.231608-30.54918-19.582807-13.316309-37.207334-29.374211-52.481924-47.78205-14.882934-18.407839-27.024274-39.165615-36.424022-60.706703-8.616435-23.107713-14.099621-46.215425-16.841214-69.714794-0.783312-11.749684-1.566625-23.499369-0.783313-35.64071l0.391657-9.008091c0-1.566625 0-3.133249 0.391656-4.308218l0.783312-4.308217 2.741593-17.624527c5.09153-23.107713 12.924653-45.823769 23.891025-66.973201 11.358028-20.757776 25.849306-39.948927 42.298864-57.181798 16.841214-16.449558 36.032366-30.940836 57.181798-42.298864 21.149432-10.966372 43.473832-18.799495 66.973201-23.891025l17.624527-2.741593 4.308217-0.783312c1.566625 0 3.133249-0.391656 4.308218-0.391657l9.008092-0.391656c11.749684-1.174968 23.499369 0 35.640709 0.783313 23.499369 2.741593 46.998738 8.224779 68.931482 17.23287 21.932744 9.399748 42.298864 21.541088 60.706703 36.424022 18.016183 15.27459 34.074085 32.899116 47.78205 52.481924 12.924653 19.974464 23.107713 41.515552 30.54918 64.231608 6.658155 22.716057 9.791404 46.607082 10.574716 70.106451h18.799495c-1.174968-25.065993-4.699874-50.523643-11.749685-75.197981z" fill="" p-id="9533"></path><path d="M743.260314 246.848807c-7.049811-22.716057-17.232871-44.257145-30.54918-64.231608-13.316309-19.582807-29.374211-37.207334-47.78205-52.481924-18.407839-14.882934-39.165615-27.024274-60.706703-36.424022C582.289637 84.703162 558.790268 79.219976 535.290899 76.478383c-11.749684-0.783312-23.499369-1.566625-35.64071-0.783313l-9.008091 0.391657c-1.566625 0-3.133249 0-4.308218 0.391656l-4.308217 0.783312-17.624527 2.741593c-23.107713 5.09153-45.823769 12.924653-66.973201 23.891025-20.757776 11.358028-39.948927 25.849306-57.181798 42.298864-16.449558 16.841214-30.940836 36.032366-42.298864 57.181798-10.966372 21.149432-18.799495 43.473832-23.891025 66.973201l-2.741593 17.624527-0.783312 4.308217c0 1.566625-0.391656 3.133249-0.391657 4.308218l-0.391656 9.008091c-1.174968 11.749684 0 23.499369 0.783313 35.64071 2.741593 23.499369 8.224779 46.998738 17.23287 68.931482 9.399748 21.932744 21.541088 42.298864 36.424022 60.706703 15.27459 18.016183 32.899116 34.074085 52.481924 47.78205 19.974464 12.924653 41.515552 23.107713 64.231608 30.54918 22.716057 6.658155 46.607082 9.791404 70.106451 10.574716 14.491277 0.391656 28.982555 2.349937 43.082176 6.266498 13.707965 4.308218 27.024274 10.574716 39.165615 18.407839 11.749684 8.224779 22.716057 18.016183 32.115804 29.374211 9.008091 11.358028 16.449558 23.891025 22.3244 37.207334 5.483186 13.316309 8.616435 27.807587 10.574716 41.907208 0 7.441467 1.174968 14.491277 0.391657 21.932744l-0.391657 5.483186v2.741593l-0.391656 2.741594-1.566624 10.574716c-3.133249 14.099621-7.833123 27.807587-14.491278 40.732239-7.049811 12.532997-15.666246 24.282681-25.849306 34.857397-10.574716 10.18306-22.3244 18.799495-34.857397 25.849306-12.924653 6.658155-26.632618 11.358028-40.732239 14.491277l-10.574716 1.566625-2.741593 0.391656h-2.741593l-5.483186 0.391656c-7.441467 0.783312-14.491277 0-21.932745-0.391656-14.491277-1.958281-28.590899-5.09153-41.907208-10.574716-13.316309-5.874842-25.849306-13.316309-37.207334-22.3244-10.966372-9.399748-20.757776-20.36612-29.374211-32.115804-7.833123-12.141341-14.099621-25.45765-18.407839-39.165615-4.308218-14.099621-5.874842-28.199243-6.266498-43.082177h-18.799495c0.391656 16.449558 2.349937 32.899116 7.04981 48.565363 5.09153 15.666246 11.749684 30.54918 20.757776 44.257145 9.399748 13.316309 20.36612 25.849306 32.899117 36.424021 12.924653 10.18306 27.024274 18.799495 41.907208 25.065994 15.27459 6.266498 31.332492 9.791404 47.390394 11.749684 8.224779 0.391656 16.449558 1.174968 24.674337 0.391656l6.266498-0.391656h3.133249l3.13325-0.391656 12.14134-1.958281c16.057902-3.524905 31.332492-8.616435 45.82377-16.449558 14.491277-7.833123 27.41593-17.624527 39.165614-28.982555 11.358028-11.749684 21.149432-25.065993 28.982555-39.165615 7.833123-14.491277 12.924653-30.157523 16.449559-45.823769l1.95828-12.141341 0.391657-3.133249v-3.133249l0.391656-6.266498c0.783312-8.224779 0-16.449558-0.391656-24.674338-1.958281-16.057902-5.483186-32.115804-11.749685-47.390394-6.658155-14.882934-14.882934-28.982555-25.065993-41.907207-10.574716-12.532997-22.716057-23.499369-36.424022-32.899117-13.707965-9.008091-28.590899-16.057902-44.257145-20.757776-15.666246-4.699874-32.115804-6.658155-48.565362-7.04981-21.932744-0.391656-43.865489-3.133249-64.623265-9.791404-20.757776-6.658155-40.732239-16.057902-59.140078-28.199243-18.016183-12.532997-34.465741-27.024274-48.565363-43.865488-13.707965-17.232871-25.065993-36.032366-33.682428-56.00683-8.224779-20.36612-13.316309-41.907208-16.057902-63.448296-0.391656-10.966372-1.566625-21.932744-0.391657-32.899116l0.391657-8.224779c0-1.174968 0-2.741593 0.391656-3.916562l0.783312-3.916561 2.349937-16.057902c4.699874-21.541088 11.749684-42.298864 21.932744-61.490016 10.574716-19.191151 23.499369-36.815678 39.165615-52.481923 15.666246-15.27459 33.290773-28.590899 52.481924-39.165615 19.191151-10.18306 40.340583-17.624527 61.490015-21.932745l16.057902-2.349936 3.916562-0.783313c1.174968 0 2.741593 0 3.916561-0.391656l8.224779-0.391656c10.966372-0.783312 21.932744 0 32.899117 0.391656 21.932744 2.349937 43.082176 7.441467 63.448296 16.057902 19.974464 8.616435 39.165615 19.974464 56.006829 33.682429 16.841214 14.099621 31.724148 30.54918 43.865489 48.565362 12.141341 18.407839 21.541088 38.382303 28.199242 59.140079 6.266498 21.149432 9.008091 43.082176 9.791404 64.623264h18.799495c0.391656-24.674337-2.741593-48.565362-9.399747-71.281419z" fill="#F2F2F2" p-id="9534"></path><path d="M725.244131 252.331993c-6.658155-20.757776-16.057902-40.732239-28.199243-59.140078-12.532997-18.016183-27.024274-34.465741-43.865489-48.565362-17.232871-13.707965-36.032366-25.065993-56.006829-33.682429-20.36612-8.224779-41.907208-13.316309-63.448296-16.057902-10.966372-0.391656-21.932744-1.566625-32.899116-0.391656l-8.224779 0.391656c-1.174968 0-2.741593 0-3.916562 0.391656l-3.916561 0.783312-16.057902 2.349937c-21.541088 4.699874-42.298864 11.749684-61.490016 21.932744-19.191151 10.574716-36.815678 23.499369-52.481923 39.165615-15.27459 15.666246-28.590899 33.290773-39.165615 52.481924-10.18306 19.191151-17.624527 40.340583-21.932745 61.490015l-3.133249 16.449559-0.783312 3.916561c0 1.174968 0 2.741593-0.391656 3.916561l-0.391656 8.22478c-0.783312 10.966372 0 21.932744 0.391656 32.899116 2.349937 21.932744 7.441467 43.082176 16.057902 63.448296 8.616435 19.974464 19.974464 39.165615 33.682429 56.006829 14.099621 16.841214 30.54918 31.724148 48.565362 43.865489 18.407839 12.141341 38.382303 21.541088 59.140078 28.199243 21.149432 6.266498 43.082176 9.008091 64.623265 9.791403 16.449558 0.391656 32.899116 2.349937 48.565362 7.049811 15.666246 5.09153 30.54918 11.749684 44.257145 20.757776 13.316309 9.399748 25.849306 20.36612 36.424022 32.899116 10.18306 12.924653 18.799495 27.024274 25.065993 41.907208 6.266498 15.27459 9.791404 31.332492 11.749685 47.390394 0.391656 8.224779 1.174968 16.449558 0.391656 24.674337l-0.391656 6.266499v3.133249l-0.391656 3.133249-1.958281 12.141341c-3.524905 16.057902-8.616435 31.332492-16.449558 45.823769-7.833123 14.491277-17.624527 27.41593-28.982555 39.165615-11.749684 11.358028-25.065993 21.149432-39.165615 28.982555-14.491277 7.833123-30.157523 12.924653-45.82377 16.449558l-12.14134 1.958281-3.133249 0.391656h-3.13325l-6.266498 0.391656c-8.224779 0.783312-16.449558 0-24.674337-0.391656-16.057902-1.958281-32.115804-5.483186-47.390394-11.749684-14.882934-6.658155-28.982555-14.882934-41.907208-25.065994-12.532997-10.574716-23.499369-22.716057-32.899117-36.424022-9.008091-13.707965-16.057902-28.590899-20.757775-44.257145-4.699874-15.666246-6.658155-32.115804-7.049811-48.565362h-18.799495c0.391656 18.407839 2.741593 36.424022 7.833123 53.656892 5.483186 17.232871 13.316309 34.074085 23.107713 49.348675 10.18306 14.882934 22.716057 28.590899 36.424021 40.340583 14.099621 11.358028 30.157523 20.757776 46.607082 27.807587 16.841214 7.049811 34.857397 10.966372 52.87358 13.316309 9.008091 0.391656 18.016183 1.174968 27.41593 0.391656l6.658155-0.391656c1.174968 0 2.349937 0 3.524905-0.391656l3.524906-0.391656 13.316309-1.958281c17.624527-3.916561 35.249053-9.791404 51.306955-18.407839 16.057902-9.008091 30.54918-19.582807 43.865489-32.50746 12.532997-12.924653 23.499369-27.807587 32.50746-43.865489 8.616435-16.057902 14.491277-33.290773 18.407839-51.306955l1.958281-13.316309 0.391656-3.524906c0-1.174968 0-2.349937 0.391656-3.524905l0.391656-6.658155c0.783312-9.008091 0-18.016183-0.391656-27.41593-1.958281-18.016183-6.266498-36.032366-13.316309-52.87358-7.049811-16.841214-16.449558-32.50746-27.807587-46.607082-11.749684-14.099621-25.45765-26.240962-40.340583-36.424021-15.27459-10.18306-31.724148-17.624527-49.348675-23.107713-17.624527-5.09153-35.640709-7.441467-53.656892-7.833123-19.974464-0.391656-39.948927-3.133249-59.140078-8.616435-19.191151-6.266498-37.59899-14.491277-54.048549-25.45765-16.449558-11.358028-31.332492-25.065993-44.257144-40.340583-12.532997-15.666246-22.716057-32.899116-30.940836-51.306956-7.441467-18.407839-12.141341-38.382303-14.491278-58.356766-0.391656-10.18306-1.566625-19.974464-0.391656-30.157523l0.391656-7.441467c0-1.174968 0-2.349937 0.391656-3.916562l0.391657-3.524905 2.349937-14.882934c4.308218-19.582807 10.966372-38.773959 20.366119-56.398485 9.791404-17.624527 21.541088-33.682429 35.64071-48.173706 14.491277-14.099621 30.54918-25.849306 48.173706-35.64071 17.624527-9.399748 36.815678-16.057902 56.398485-20.366119l14.882934-2.349937 3.524905-0.391656c1.174968 0 2.349937 0 3.916562-0.391656l7.441467-0.391657c10.18306-0.783312 19.974464 0 30.157523 0.391657 19.974464 2.349937 39.557271 7.049811 58.356766 14.491277 18.407839 7.833123 35.640709 18.407839 51.306955 30.940836 15.27459 12.924653 28.982555 27.807587 40.340584 44.257144 10.966372 16.841214 19.582807 35.249053 25.457649 54.048549 5.874842 19.191151 8.224779 39.165615 8.616436 59.140078h18.799495c-1.566625-20.36612-4.308218-42.298864-10.574716-63.448296z" fill="" p-id="9535"></path><path d="M700.178137 628.713552c-7.833123-18.407839-18.407839-35.640709-30.940835-51.306956-12.924653-15.27459-27.807587-28.982555-44.257145-40.340583-16.841214-10.966372-35.249053-19.582807-54.048549-25.45765-19.191151-5.874842-39.165615-8.224779-59.140078-8.616435-18.407839-0.391656-36.424022-2.741593-53.656892-7.833123-17.232871-5.483186-34.074085-13.316309-49.348675-23.107713-14.882934-10.18306-28.590899-22.716057-40.340583-36.424021-11.358028-14.099621-20.757776-30.157523-27.807587-46.607082-7.049811-16.841214-10.966372-34.857397-13.316309-52.87358-0.391656-9.008091-1.174968-18.016183-0.391656-27.41593l0.391656-6.658155c0-1.174968 0-2.349937 0.391656-3.524905l0.391656-3.524906 1.958281-13.316309c3.916561-17.624527 9.791404-35.249053 18.407839-51.306955 9.008091-16.057902 19.582807-30.54918 32.50746-43.865489 12.924653-12.532997 27.807587-23.499369 43.865489-32.50746 16.057902-8.616435 33.290773-14.491277 51.306955-18.407839l13.31631-1.958281 3.524905-0.391656c1.174968 0 2.349937 0 3.524905-0.391656l6.658155-0.391656c9.008091-0.783312 18.016183 0 27.41593 0.391656 18.016183 1.958281 36.032366 6.266498 52.87358 13.316309 16.841214 7.049811 32.50746 16.449558 46.607082 27.807587 14.099621 11.749684 26.240962 25.45765 36.424022 40.340583 10.18306 15.27459 17.624527 31.724148 23.107712 49.348675 5.09153 17.624527 7.441467 35.640709 7.833123 53.656892h18.799495c-0.391656-19.974464-3.133249-39.948927-8.616435-59.140078-6.266498-19.191151-14.491277-37.59899-25.45765-54.048549-11.358028-16.449558-25.065993-31.332492-40.340583-44.257145-15.666246-12.532997-32.899116-22.716057-51.306955-30.940835-18.407839-7.441467-38.382303-12.141341-58.356766-14.491278-10.18306-0.391656-19.974464-1.566625-30.157524-0.391656l-7.833123-0.391656c-1.174968 0-2.349937 0-3.916561 0.391656l-3.524906 0.391656-14.882933 2.349937c-19.582807 4.308218-38.773959 10.966372-56.398486 20.36612-17.624527 9.791404-33.682429 21.541088-48.173706 35.640709-14.099621 14.491277-25.849306 30.54918-35.640709 48.173706-9.399748 17.624527-16.057902 36.815678-20.36612 56.398486l-2.349937 14.882933-0.391656 3.524906c0 1.174968 0 2.349937-0.391656 3.916561l-0.391656 7.441467c-0.783312 10.18306 0 19.974464 0.391656 30.157523 2.349937 19.974464 7.049811 39.557271 14.491277 58.356767 7.833123 18.407839 18.407839 35.640709 30.940836 51.306955 12.924653 15.27459 27.807587 28.982555 44.257145 40.340583 16.841214 10.966372 35.249053 19.582807 54.048548 25.45765 19.191151 5.874842 39.165615 8.224779 59.140079 8.616435 18.407839 0.391656 36.424022 2.741593 53.656892 7.833123 17.232871 5.483186 34.074085 13.316309 49.348675 23.107713 14.882934 10.18306 28.590899 22.716057 40.340583 36.424022 11.358028 14.099621 20.757776 30.157523 27.807586 46.607081 7.049811 16.841214 10.966372 34.857397 13.316309 52.87358 0.391656 9.008091 1.174968 18.016183 0.391657 27.415931l-0.391657 6.658154c0 1.174968 0 2.349937-0.391656 3.524906l-0.391656 3.524905-1.958281 13.316309c-3.916561 17.624527-9.791404 35.249053-18.407839 51.306955-9.008091 16.057902-19.582807 30.54918-32.50746 43.865489-12.924653 12.532997-27.807587 23.499369-43.865488 32.50746-16.057902 8.616435-33.290773 14.491277-51.306956 18.407839l-13.316309 1.958281-3.524905 0.391656c-1.174968 0-2.349937 0-3.524906 0.391656l-6.658154 0.391656c-9.008091 0.783312-18.016183 0-27.41593-0.391656-18.016183-1.958281-36.032366-6.266498-52.87358-13.316309-16.841214-7.049811-32.50746-16.449558-46.607082-27.807586-14.099621-11.749684-26.240962-25.45765-36.424022-40.340584-10.18306-15.27459-17.624527-31.724148-23.107713-49.348674-5.09153-17.624527-7.441467-35.640709-7.833123-53.656893h-18.799495c0.391656 19.974464 3.133249 39.948927 8.616436 59.140079 6.266498 19.191151 14.491277 37.59899 25.457649 54.048548 11.358028 16.449558 25.065993 31.332492 40.340583 44.257145 15.666246 12.532997 32.899116 22.716057 51.306956 30.940836 18.407839 7.441467 38.382303 12.141341 58.356766 14.491277 10.18306 0.391656 19.974464 1.566625 30.157523 0.391656l7.441467-0.391656c1.174968 0 2.349937 0 3.916562-0.391656l3.524905-0.391656 14.882934-2.349937c19.582807-4.308218 38.773959-10.966372 56.398485-20.36612 17.624527-9.791404 33.682429-21.541088 48.173706-35.640709 14.099621-14.491277 25.849306-30.54918 35.64071-48.173706 9.399748-17.624527 16.057902-36.815678 20.366119-56.398486l2.349937-14.882933 0.391656-3.524906c0-1.174968 0-2.349937 0.391657-3.916561l0.391656-7.441467c0.783312-10.18306 0-19.974464-0.391656-30.157523-1.566625-19.191151-6.266498-39.165615-14.099622-57.573454z" fill="#F2F2F2" p-id="9536"></path><path d="M733.46891 685.112037c-2.349937-21.932744-7.441467-43.082176-16.057902-63.448296-8.616435-19.974464-19.974464-39.165615-33.682429-56.006829-14.099621-16.841214-30.54918-31.724148-48.565362-43.865489-18.407839-12.141341-38.382303-21.541088-59.140079-28.199242-21.149432-6.266498-43.082176-9.008091-64.623264-9.791404-16.449558-0.391656-32.899116-2.349937-48.565363-7.049811-15.666246-5.09153-30.54918-11.749684-44.257144-20.757776-13.316309-9.399748-25.849306-20.36612-36.424022-32.899116-10.18306-12.924653-18.799495-27.024274-25.065994-41.907208-6.266498-15.27459-9.791404-31.332492-11.749684-47.390394-0.391656-8.224779-1.174968-16.449558-0.391656-24.674337l0.391656-6.266499v-3.133249l0.391656-3.133249 1.958281-12.141341c3.524905-16.057902 8.616435-31.332492 16.449558-45.823769 7.833123-14.491277 17.624527-27.41593 28.982555-39.165615 11.749684-11.358028 25.065993-21.149432 39.165615-28.982555 14.491277-7.833123 30.157523-12.924653 45.823769-16.449558l12.141341-1.958281 3.133249-0.391656h3.133249l6.266499-0.391656c8.224779-0.783312 16.449558 0 24.674337 0.391656 16.057902 1.958281 32.115804 5.483186 47.390394 11.749685 14.882934 6.658155 28.982555 14.882934 41.907208 25.065993 12.532997 10.574716 23.499369 22.716057 32.899116 36.424022 9.008091 13.707965 16.057902 28.590899 20.757776 44.257145 4.699874 15.666246 6.658155 32.115804 7.049811 48.565362h18.799495c-0.391656-18.407839-2.741593-36.424022-7.833123-53.656892-5.483186-17.232871-13.316309-34.074085-23.107713-49.348675-10.18306-14.882934-22.716057-28.590899-36.424022-40.340583-14.099621-11.358028-30.157523-20.757776-46.607081-27.807587-16.841214-7.049811-34.857397-10.966372-52.87358-13.316309-9.008091-0.391656-18.016183-1.174968-27.415931-0.391656l-6.658154 0.391656c-1.174968 0-2.349937 0-3.524906 0.391656l-2.741593-0.391656-13.316309 1.958281c-17.624527 3.916561-35.249053 9.791404-51.306955 18.407839-16.057902 9.008091-30.54918 19.582807-43.865489 32.50746-12.532997 12.924653-23.499369 27.807587-32.50746 43.865489-8.616435 16.057902-14.491277 33.290773-18.407839 51.306955l-1.958281 12.924653-0.391656 3.524905c0 1.174968 0 2.349937-0.391656 3.524906l-0.391656 6.658154c-0.783312 9.008091 0 18.016183 0.391656 27.415931 1.958281 18.016183 6.266498 36.032366 13.316309 52.87358 7.049811 16.841214 16.449558 32.50746 27.807587 46.607081 11.749684 14.099621 25.45765 26.240962 40.340583 36.424022 15.27459 10.18306 31.724148 17.624527 49.348675 23.107713 17.624527 5.09153 35.640709 7.441467 53.656892 7.833123 19.974464 0.391656 39.948927 3.133249 59.140078 8.616435 19.191151 6.266498 37.59899 14.491277 54.048549 25.45765 16.449558 11.358028 31.332492 25.065993 44.257144 40.340583 12.532997 15.666246 22.716057 32.899116 30.940836 51.306955 7.441467 18.407839 12.141341 38.382303 14.491278 58.356767 0.391656 10.18306 1.566625 19.974464 0.391656 30.157523l-0.391656 7.441467c0 1.174968 0 2.349937-0.391657 3.916561l-0.391656 3.524906-2.349937 14.882933c-4.308218 19.582807-10.966372 38.773959-20.366119 56.398486-9.791404 17.624527-21.541088 33.682429-35.64071 48.173706-14.491277 14.099621-30.54918 25.849306-48.173706 35.640709-17.624527 9.399748-36.815678 16.057902-56.398485 20.36612l-14.882934 2.349937-3.524905 0.391656c-1.174968 0-2.349937 0-3.916562 0.391656l-7.441467 0.391656c-10.18306 0.783312-19.974464 0-30.157523-0.391656-19.974464-2.349937-39.557271-7.049811-58.356766-14.491277-18.407839-7.833123-35.640709-18.407839-51.306956-30.940836-15.27459-12.924653-28.982555-27.807587-40.340583-44.257145-10.966372-16.841214-19.582807-35.249053-25.457649-54.048548-5.874842-19.191151-8.224779-39.165615-8.616436-59.140079H288.547525c0.391656 21.932744 3.133249 43.865489 9.791404 64.623265 6.658155 20.757776 16.057902 40.732239 28.199243 59.140078 12.532997 18.016183 27.024274 34.465741 43.865488 48.565363 17.232871 13.707965 36.032366 25.065993 56.00683 33.682428 20.36612 8.224779 41.907208 13.316309 63.448296 16.057902 10.966372 0.391656 21.932744 1.566625 32.899116 0.391657l8.224779-0.391657c1.174968 0 2.741593 0 3.916562-0.391656l3.916561-0.783312 16.057902-2.349937c21.541088-4.699874 42.298864-11.749684 61.490016-21.932744 19.191151-10.574716 36.815678-23.499369 52.481923-39.165615 15.27459-15.666246 28.590899-33.290773 39.165615-52.481924 10.18306-19.191151 17.624527-40.340583 21.932745-61.490015l2.349936-16.057902 0.783313-3.916562c0-1.174968 0-2.741593 0.391656-3.916561l0.391656-8.224779c1.174968-11.749684 0.391656-22.3244-0.391656-33.290773z" fill="" p-id="9537"></path><path d="M752.268405 683.153756c-2.741593-23.499369-8.224779-46.998738-17.232871-68.931482-9.399748-21.932744-21.541088-42.298864-36.424021-60.706703-15.27459-18.016183-32.899116-34.074085-52.481924-47.78205-19.974464-12.924653-41.515552-23.107713-64.231609-30.549179-22.716057-6.658155-46.607082-9.791404-70.10645-10.574716-14.491277-0.391656-28.982555-2.349937-43.082176-6.266499-13.707965-4.308218-27.024274-10.574716-39.165615-18.407839-11.749684-8.224779-22.716057-18.016183-32.115804-29.374211-9.008091-11.358028-16.449558-23.891025-22.324401-37.207334-5.483186-13.316309-8.616435-27.807587-10.574716-41.907208 0-7.441467-1.174968-14.491277-0.391656-21.932744l0.391656-5.483186v-2.741593l0.391656-2.741593 1.566625-10.574716c3.133249-14.099621 7.833123-27.807587 14.491277-40.73224 7.049811-12.532997 15.666246-24.282681 25.849306-34.857397 10.574716-10.18306 22.3244-18.799495 34.857397-25.849306 12.924653-6.658155 26.632618-11.358028 40.73224-14.491277l10.574716-1.566625 2.741593-0.391656h2.741593l5.483186-0.391656c7.441467-0.783312 14.491277 0 21.932744 0.391656 14.491277 1.958281 28.590899 5.09153 41.907208 10.574716 13.316309 5.874842 25.849306 13.316309 37.207334 22.324401 10.966372 9.399748 20.757776 20.36612 29.374211 32.115804 7.833123 12.141341 14.099621 25.45765 18.407839 39.165615 4.308218 14.099621 5.874842 28.199243 6.266499 43.082176h18.799495c-0.391656-16.449558-2.349937-32.899116-7.049811-48.565362-5.09153-15.666246-11.749684-30.54918-20.757776-44.257145-9.399748-13.316309-20.36612-25.849306-32.899116-36.424022-12.924653-10.18306-27.024274-18.799495-41.907208-25.065993-15.27459-6.266498-31.332492-9.791404-47.390394-11.749685-8.224779-0.391656-16.449558-1.174968-24.674337-0.391656l-6.266499 0.391656h-3.133249l-3.133249 0.391656-12.141341 1.958281c-16.057902 3.524905-31.332492 8.616435-45.823769 16.449558-14.491277 7.833123-27.41593 17.624527-39.165615 28.982555-11.358028 11.749684-21.149432 25.065993-28.982555 39.165615-7.833123 14.491277-12.924653 30.157523-16.449558 45.823769l-1.958281 12.141341-0.391656 3.133249v3.133249l-0.391656 6.266499c-0.783312 8.224779 0 16.449558 0.391656 24.674337 1.958281 16.057902 5.483186 32.115804 11.749685 47.390394 6.658155 14.882934 14.882934 28.982555 25.065993 41.907208 10.574716 12.532997 22.716057 23.499369 36.424022 32.899116 13.707965 9.008091 28.590899 16.057902 44.257145 20.757776 15.666246 4.699874 32.115804 6.658155 48.565362 7.049811 21.932744 0.391656 43.865489 3.133249 64.623264 9.791403 20.757776 6.658155 40.732239 16.057902 59.140079 28.199243 18.016183 12.532997 34.465741 27.024274 48.565362 43.865489 13.707965 17.232871 25.065993 36.032366 33.682429 56.006829 8.224779 20.36612 13.316309 41.907208 16.057902 63.448296 0.391656 10.966372 1.566625 21.932744 0.391656 32.899116l-0.391656 8.22478c0 1.174968 0 2.741593-0.391656 3.916561l-0.783312 3.916561-2.349937 16.057903c-4.699874 21.541088-11.749684 42.298864-21.932745 61.490015-10.574716 19.191151-23.499369 36.815678-39.165614 52.481924-15.666246 15.27459-33.290773 28.590899-52.481924 39.165615-19.191151 10.18306-40.340583 17.624527-61.490016 21.932744l-16.057902 2.349937-3.916561 0.783312c-1.174968 0-2.741593 0-3.916562 0.391656l-8.224779 0.391656c-10.966372 0.783312-21.932744 0-32.899116-0.391656-21.932744-2.349937-43.082176-7.441467-63.448296-16.057902-19.974464-8.616435-39.165615-19.974464-56.006829-33.682429-16.841214-14.099621-31.724148-30.54918-43.865489-48.565362-12.141341-18.407839-21.541088-38.382303-28.199243-59.140078-6.266498-21.149432-9.008091-43.082176-9.791403-64.623265h-18.799496c0.391656 23.499369 3.524905 47.390394 10.574716 70.106451 7.049811 22.716057 17.232871 44.257145 30.54918 64.231608 13.316309 19.582807 29.374211 37.207334 47.78205 52.481924 18.407839 14.882934 39.165615 27.024274 60.706703 36.424022 21.932744 9.008091 45.432113 14.491277 68.931482 17.23287 11.749684 0.783312 23.499369 1.566625 35.64071 0.783312l9.008091-0.391656c1.566625 0 3.133249 0 4.308218-0.391656l4.308217-0.783312 16.841215-1.958281c23.107713-5.09153 45.823769-12.924653 66.973201-23.891025 20.757776-11.358028 39.948927-25.849306 57.181798-42.298864 16.449558-16.841214 30.940836-36.032366 42.298864-57.181798 10.966372-21.149432 18.799495-43.473832 23.891025-66.973201l2.741593-17.624527 0.783312-4.308217c0-1.566625 0.391656-3.133249 0.391656-4.308218l0.391656-9.008091c0.391656-11.749684-0.391656-23.499369-1.174968-35.249054z" fill="#F2F2F2" p-id="9538"></path><path d="M771.0679 681.195476c-2.741593-25.45765-9.008091-50.523643-18.407839-74.414669-10.18306-23.499369-23.107713-45.823769-39.165615-65.798232-16.449558-19.582807-35.640709-36.815678-56.790141-51.306956-21.541088-14.099621-44.648801-25.065993-69.323138-32.899116-24.674337-7.441467-50.131987-10.966372-75.589637-11.358029-12.924653-0.391656-25.45765-1.958281-37.59899-5.483186-12.141341-3.916561-23.499369-9.399748-34.074085-16.057902-10.574716-7.441467-19.974464-15.666246-28.199243-25.457649-7.833123-9.791404-14.491277-20.757776-19.582807-32.507461-4.699874-11.749684-7.441467-23.891025-9.008092-36.815678 0-6.266498-1.174968-12.532997-0.391656-19.191151l0.391656-4.699874v-2.349937l0.391656-2.349936c0.391656-3.133249 1.174968-6.266498 1.566625-9.399748 2.741593-12.141341 6.658155-24.282681 12.532997-35.64071 6.266498-10.966372 13.707965-21.149432 22.716056-30.549179 9.008091-8.616435 19.582807-16.449558 30.54918-22.716057 11.358028-5.874842 23.107713-9.791404 35.640709-12.532996 3.133249-0.391656 6.266498-0.783312 9.399748-1.566625l2.349937-0.391656h2.349937l4.699874-0.391656c6.266498-0.783312 12.532997 0 19.191151 0.391656 12.532997 1.566625 25.065993 4.308218 36.815678 9.008091 11.749684 5.09153 22.716057 11.358028 32.50746 19.582808 9.791404 8.224779 18.407839 17.624527 25.45765 28.199242 7.049811 10.574716 12.141341 22.3244 16.057902 34.074085 3.524905 12.141341 5.09153 24.674337 5.483186 37.59899h18.799495c-0.391656-14.491277-2.349937-28.982555-6.266498-43.082176-4.308218-13.707965-10.574716-27.024274-18.407839-39.165615-8.224779-11.749684-18.016183-22.716057-29.374211-32.115804-11.358028-9.008091-23.891025-16.449558-37.207335-22.3244-13.316309-5.483186-27.807587-8.616435-41.907207-10.574716-7.441467 0-14.491277-1.174968-21.932745-0.391656l-5.483186 0.391656h-2.741593l-2.741593 0.391656-10.574716 1.566624c-14.099621 3.133249-27.807587 7.833123-40.732239 14.491278-12.532997 7.049811-24.282681 15.666246-34.857397 25.849306-10.18306 10.574716-18.799495 22.3244-25.849306 34.857397-6.658155 12.924653-11.358028 26.632618-14.491278 40.732239l-1.566624 10.574716-1.174969 4.308218v2.741593l-0.391656 5.483186c-0.783312 7.441467 0 14.491277 0.391656 21.932744 1.958281 14.491277 5.09153 28.590899 10.574716 41.907208 5.874842 13.316309 13.316309 25.849306 22.324401 37.207334 9.399748 10.966372 20.36612 20.757776 32.115804 29.374211 12.141341 7.833123 25.45765 14.099621 39.165615 18.407839 14.099621 4.308218 28.199243 5.874842 43.082176 6.266499 23.499369 0.391656 47.390394 3.524905 70.10645 10.574716 22.716057 7.049811 44.257145 17.232871 64.231609 30.549179 19.582807 13.316309 37.207334 29.374211 52.481924 47.78205 14.882934 18.407839 27.024274 39.165615 36.424021 60.706703 9.008091 21.932744 14.491277 45.432113 17.232871 68.931483 0.783312 11.749684 1.566625 23.499369 0.783312 35.640709l-0.391656 9.008091c0 1.566625 0 3.133249-0.391656 4.308218l-0.783312 4.308218-2.741593 17.624526c-5.09153 23.107713-12.924653 45.823769-23.891025 66.973202-11.358028 20.757776-25.849306 39.948927-42.298864 57.181797-16.841214 16.449558-36.032366 30.940836-57.181798 42.298864-21.149432 10.966372-43.473832 18.799495-66.973201 23.891025l-17.624527 2.741593-4.308218 0.783313c-1.566625 0-3.133249 0.391656-4.308217 0.391656l-9.008092 0.391656c-11.749684 1.174968-23.499369 0-35.640709-0.783312-23.499369-2.741593-46.998738-8.224779-68.931482-17.232871-21.932744-9.399748-42.298864-21.541088-60.706703-36.424022-18.016183-15.27459-34.074085-32.899116-47.78205-52.481923-12.924653-19.974464-23.107713-41.515552-30.54918-64.231609-6.658155-22.716057-9.791404-46.607082-10.574716-70.10645h-18.799495c0.391656 25.45765 3.916561 50.915299 11.358028 75.589636 7.833123 24.282681 18.799495 47.78205 32.899117 69.323139 14.491277 21.149432 31.724148 40.340583 51.306955 56.790141 19.974464 16.057902 41.907208 29.374211 65.798233 39.165615 23.891025 9.791404 48.957019 15.666246 74.414668 18.407839 12.924653 0.783312 25.45765 1.958281 38.382303 0.783312l9.399747-0.391656c1.566625 0 3.133249 0 4.699874-0.391656l4.699874-0.783312c6.266498-0.783312 12.532997-1.958281 18.799495-2.741593 25.065993-5.483186 49.348675-13.707965 72.064731-25.849306 22.3244-12.141341 43.082176-27.807587 61.490015-45.432113 18.016183-18.407839 33.290773-38.773959 45.432114-61.490016 12.141341-22.716057 20.36612-46.998738 25.849305-72.064731 1.174968-6.266498 1.958281-12.532997 2.741593-18.799495l0.783313-4.699874c0-1.566625 0.391656-3.133249 0.391656-4.699874l0.391656-9.399747c1.566625-14.491277 0.783312-27.024274 0-39.948927z" fill="" p-id="9539"></path><path d="M789.867395 679.628851c-3.133249-27.41593-9.399748-54.048548-19.974463-79.506198-10.966372-25.45765-25.065993-48.957019-42.298864-70.498107-17.624527-21.149432-37.990646-39.557271-60.706703-54.83186-22.716057-15.27459-48.173706-27.024274-74.414669-35.249054-26.240962-7.833123-53.656892-11.749684-81.072822-12.14134-10.966372-0.391656-21.541088-1.566625-32.115804-4.699874-10.18306-3.524905-19.974464-7.833123-28.982555-13.707965-9.008091-6.266498-16.841214-13.707965-23.891025-21.932745-6.658155-8.616435-12.141341-18.016183-16.449559-27.807586-3.916561-10.18306-6.266498-20.36612-7.833123-31.332492 0-5.483186-0.783312-10.966372 0-16.449558v-3.916562-1.958281l0.391657-1.95828c0.391656-2.741593 0.783312-5.483186 1.174968-7.833123 2.349937-10.574716 5.874842-20.757776 10.966372-30.157524 5.483186-9.399748 11.749684-18.016183 19.191151-26.240962 7.833123-7.441467 16.841214-14.099621 26.240962-19.191151 9.399748-5.09153 19.974464-8.224779 30.157524-10.966372 2.741593-0.391656 5.483186-0.783312 7.833123-1.174968l1.958281-0.391657h5.874842c5.483186-0.783312 10.966372 0.391656 16.449558 0 10.574716 1.566625 21.149432 3.916561 31.332492 7.833123 9.791404 4.308218 19.191151 9.791404 27.807586 16.449559 8.224779 7.049811 15.666246 15.27459 21.932745 23.891025 5.874842 9.008091 10.574716 18.799495 13.707965 28.982555 3.133249 10.18306 4.308218 21.149432 4.699874 32.115804h18.799495c-0.391656-12.924653-1.958281-25.45765-5.483186-37.59899-3.916561-12.141341-9.399748-23.499369-16.057902-34.074085-7.441467-10.574716-15.666246-19.974464-25.45765-28.199243-9.791404-7.833123-20.757776-14.491277-32.50746-19.582807-11.749684-4.699874-23.891025-7.441467-36.815678-9.008092-6.266498 0-12.532997-1.174968-19.191152-0.391656l-4.699873 0.391656h-2.349937l-2.349937 0.391656c-3.133249 0.391656-6.266498 1.174968-9.399748 1.566625-12.141341 2.741593-24.282681 6.658155-35.640709 12.532997-10.966372 6.266498-21.149432 13.707965-30.54918 22.716056-8.616435 9.008091-16.449558 19.582807-22.716056 30.54918-5.874842 11.358028-9.791404 23.107713-12.532997 35.640709-0.391656 3.133249-0.783312 6.266498-1.566625 9.399748l-0.391656 2.349937v2.349937l-0.391656 4.699873c-0.783312 6.266498 0 12.532997 0.391656 19.191152 1.566625 12.532997 4.308218 25.065993 9.008092 36.815678 5.09153 11.749684 11.358028 22.716057 19.582807 32.50746 8.224779 9.791404 17.624527 18.407839 28.199243 25.45765 10.574716 7.049811 22.3244 12.141341 34.074085 16.057902 12.141341 3.524905 24.674337 5.09153 37.59899 5.483186 25.45765 0.391656 50.915299 3.916561 75.589636 11.358028 24.282681 7.833123 47.78205 18.799495 69.323139 32.899116 21.149432 14.491277 40.340583 31.724148 56.790141 51.306956 16.057902 19.974464 29.374211 41.907208 39.165615 65.798233 9.791404 23.891025 15.666246 48.957019 18.407839 74.414668 0.783312 12.924653 1.958281 25.45765 0.783312 38.382302l-0.391656 9.399748c0 1.566625 0 3.133249-0.391656 4.699874l-0.783312 4.699874c-0.783312 6.266498-1.958281 12.532997-2.741593 18.799495-5.483186 25.065993-13.707965 49.348675-25.849306 72.064731-12.141341 22.3244-27.807587 43.082176-45.432113 61.490015-18.407839 18.016183-38.773959 33.290773-61.490016 45.432113-22.716057 12.141341-46.998738 20.36612-72.064731 25.849306-6.266498 1.174968-12.532997 1.958281-18.799495 2.741593l-4.699874 0.783313c-1.566625 0-3.133249 0.391656-4.699874 0.391656l-9.399747 0.391656c-12.924653 1.174968-25.45765 0-38.382303-0.783312-25.45765-2.741593-50.523643-9.008091-74.414668-18.407839-23.499369-10.18306-45.823769-23.107713-65.798233-39.165615-19.582807-16.449558-36.815678-35.640709-51.306955-56.790142-14.099621-21.541088-25.065993-44.648801-32.899117-69.323138-7.441467-24.674337-10.966372-50.131987-11.358028-75.589637H232.14904c0.391656 27.41593 4.308218 54.831861 12.141341 81.072823 8.224779 26.240962 19.974464 51.306955 35.249053 74.414668 15.666246 22.716057 34.074085 43.082176 54.831861 60.706703 21.149432 17.232871 45.040457 31.332492 70.498106 42.298864 25.45765 10.574716 52.481924 16.841214 79.506199 19.974464 13.707965 0.783312 27.41593 1.958281 41.123895 0.783312l10.18306-0.391656c1.566625 0 3.524905 0 5.09153-0.391656l5.09153-0.783312c6.658155-0.783312 13.707965-1.958281 20.36612-3.13325 27.024274-5.483186 53.265236-14.882934 77.547917-27.807586 24.282681-13.316309 46.215425-29.765867 65.798233-48.957019 19.191151-19.582807 35.640709-41.907208 48.957018-65.798233 12.924653-24.282681 21.932744-50.523643 27.807587-77.547917 1.174968-6.658155 2.349937-13.707965 3.133249-20.36612l0.783312-5.09153c0-1.566625 0.391656-3.524905 0.391657-5.09153l0.391656-10.183059c0.783312-14.099621-0.391656-27.41593-1.174969-41.123896z" fill="#F2F2F2" p-id="9540"></path><path d="M827.074729 675.71229c-3.524905-30.940836-10.574716-61.490015-22.716056-90.472571-12.141341-28.590899-28.199243-55.615173-47.78205-79.897854-19.974464-23.891025-43.082176-45.040457-68.931482-62.273328-25.849306-17.232871-54.440205-30.54918-84.206072-39.948927-29.765867-9.008091-61.098359-13.316309-92.039195-13.707965-7.441467-0.391656-14.491277-1.174968-21.149432-3.133249-6.658155-2.349937-12.924653-5.09153-19.191151-9.008091-5.874842-4.308218-11.358028-9.008091-16.057903-14.491278-4.308218-5.874842-7.833123-11.749684-10.966372-18.407839-2.741593-6.658155-3.916561-13.316309-5.09153-20.36612 0.391656-3.524905-0.783312-7.441467 0-10.966372v-2.741593-1.174968l0.391657-1.174969c0.391656-1.566625 0.783312-3.524905 0.783312-5.09153 1.566625-6.658155 3.916561-13.707965 7.04981-19.974463 3.524905-6.266498 7.833123-11.749684 12.924653-17.232871 5.483186-5.09153 10.966372-9.008091 17.232871-12.924653 6.266498-3.133249 12.924653-5.483186 19.974463-7.04981 1.958281 0 3.524905-0.391656 5.09153-0.783313l1.174969-0.391656h3.916561c3.524905-0.783312 7.049811 0.391656 10.966372 0 7.049811 1.174968 14.099621 2.349937 20.36612 5.09153 6.266498 3.133249 12.532997 6.658155 18.407839 10.966372 5.483186 4.699874 10.18306 10.18306 14.491278 16.057902 3.916561 5.874842 6.658155 12.532997 9.008091 19.191152 1.958281 6.658155 2.741593 13.707965 3.133249 21.149432h18.799495c-0.391656-9.008091-1.566625-18.016183-3.916561-26.632618-2.741593-8.224779-6.658155-16.449558-11.358028-24.282682-5.09153-7.441467-11.358028-14.099621-18.016183-19.974463-7.049811-5.483186-14.882934-10.18306-23.107713-13.707965-8.224779-3.524905-16.841214-5.09153-25.849306-6.658155-4.699874 0-9.008091-0.783312-13.707965 0h-5.09153l-1.566624 0.391656c-2.349937 0.391656-4.308218 0.783312-6.658155 0.783313-8.616435 1.958281-17.232871 4.699874-25.065993 9.008091-7.833123 4.308218-14.882934 9.791404-21.541089 16.057902-6.266498 6.658155-11.749684 13.707965-16.057902 21.541088-4.308218 7.833123-7.049811 16.449558-9.008091 25.065994-0.391656 2.349937-0.391656 4.308218-0.783312 6.658154l-0.391657 1.566625v5.09153c-0.783312 4.699874 0.391656 9.008091 0 13.707965 1.174968 9.008091 3.133249 17.624527 6.658155 25.849306 3.524905 8.224779 8.224779 16.057902 13.707965 23.107713 5.874842 6.658155 12.532997 12.924653 19.974464 18.016182 7.441467 4.699874 15.666246 8.616435 24.282681 11.358029 8.616435 2.349937 17.624527 3.524905 26.632618 3.916561 28.982555 0.391656 58.356766 4.308218 86.556009 12.924653 28.199243 8.616435 54.831861 21.149432 79.114542 37.59899 24.282681 16.449558 45.823769 36.424022 64.623264 58.748423 18.407839 22.716057 33.682429 48.173706 45.040457 75.19798 11.358028 27.024274 18.016183 56.006829 21.149432 84.989384 0.783312 14.491277 1.958281 28.982555 0.783312 43.865489l-0.783312 10.966372c0 1.958281 0 3.524905-0.391656 5.483186l-0.783312 5.483186c-1.174968 7.441467-1.958281 14.491277-3.524906 21.541088-5.874842 28.590899-15.666246 56.790141-29.374211 82.639447-14.099621 25.849306-31.724148 49.348675-52.090267 70.106451-20.757776 20.36612-44.648801 37.990646-70.106451 52.090268-25.849306 13.707965-54.048548 23.499369-82.639447 29.374211-7.049811 1.174968-14.491277 2.349937-21.541088 3.524905l-5.483186 0.783312c-1.958281 0.391656-3.524905 0.391656-5.483187 0.391657l-10.966372 0.783312c-14.491277 1.174968-28.982555 0-43.865488-0.783312-28.982555-3.133249-57.96511-10.18306-84.989384-21.149432-27.024274-11.358028-52.481924-26.632618-75.197981-45.040457-22.3244-18.799495-42.298864-40.732239-58.748422-64.623265-16.057902-24.282681-28.590899-51.306955-37.59899-79.114542-8.616435-28.199243-12.532997-57.573454-12.924653-86.556009H194.55005c0.391656 30.940836 4.699874 61.881671 13.707965 92.039195 9.399748 29.765867 22.716057 58.356766 39.948927 84.206072 17.624527 25.849306 38.382303 48.957019 62.273328 68.931482 24.282681 19.582807 50.915299 35.640709 79.897854 47.78205 28.982555 11.749684 59.531735 19.191151 90.47257 22.716057 15.27459 0.783312 30.940836 1.958281 46.607082 0.783312l11.749684-0.783312c1.958281 0 3.916561-0.391656 5.874843-0.391656l5.874842-0.783313c7.833123-1.174968 15.27459-2.349937 23.107713-3.524905 30.54918-6.266498 60.315047-16.841214 87.730977-31.332492 27.41593-14.882934 52.481924-33.682429 74.806324-55.223517 21.932744-22.3244 40.340583-47.390394 55.223517-74.806324 14.491277-27.41593 25.065993-57.181798 31.332492-87.730977 1.174968-7.833123 2.349937-15.27459 3.524905-23.107713l0.783312-5.874842c0.391656-1.958281 0.391656-3.916561 0.391657-5.874842l0.783312-11.749685c0.783312-15.666246-0.391656-30.940836-1.566625-46.607081z" fill="#F2F2F2" p-id="9541"></path><path d="M808.275234 677.67057c-3.133249-28.982555-10.18306-57.96511-21.149432-84.989384-11.358028-27.024274-26.632618-52.481924-45.040457-75.19798-18.799495-22.3244-40.732239-42.298864-64.623264-58.748423-24.282681-16.057902-51.306955-28.590899-79.114542-37.59899-28.199243-8.616435-57.573454-12.532997-86.556009-12.924653-9.008091-0.391656-18.016183-1.566625-26.632618-3.916561-8.224779-2.741593-16.449558-6.658155-24.282681-11.358028-7.441467-5.09153-14.099621-11.358028-19.974464-18.016183-5.483186-7.049811-10.18306-14.882934-13.707965-23.107713-3.524905-8.224779-5.09153-16.841214-6.658155-25.849306 0-4.699874-0.783312-9.008091 0-13.707965v-3.524905-1.566625l0.391657-1.566625c0.391656-2.349937 0.783312-4.308218 0.783312-6.658154 1.958281-8.616435 4.699874-17.232871 9.008091-25.065994 4.308218-7.833123 9.791404-14.882934 16.057902-21.541088 6.658155-6.266498 13.707965-11.749684 21.541089-16.057902 7.833123-4.308218 16.449558-7.049811 25.065993-9.008091 2.349937-0.391656 4.308218-0.391656 6.658155-0.783312l1.566624-0.391657h5.09153c4.699874-0.783312 9.008091 0.391656 13.707965 0 9.008091 1.174968 17.624527 3.133249 25.849306 6.658155 8.224779 3.524905 16.057902 8.224779 23.107713 13.707965 6.658155 5.874842 12.924653 12.532997 18.016183 19.974464 4.699874 7.441467 8.616435 15.666246 11.358028 24.282681 2.349937 8.616435 3.524905 17.624527 3.916561 26.632618h18.799495c-0.391656-10.966372-1.566625-21.541088-4.699873-32.115804-3.524905-10.18306-7.833123-19.974464-13.707966-28.982555-6.266498-9.008091-13.707965-16.841214-21.932744-23.891025-8.616435-6.658155-18.016183-12.141341-27.807586-16.449558-10.18306-3.916561-20.36612-6.266498-31.332492-7.833123-5.483186 0-10.966372-0.783312-16.449558 0h-5.874843l-1.566624-0.391657c-2.741593 0.391656-5.483186 0.783312-7.833123 1.174969-10.574716 2.349937-20.757776 5.874842-30.157524 10.966372-9.399748 5.483186-18.016183 11.749684-26.240962 19.191151-7.441467 7.833123-14.099621 16.841214-19.191151 26.240962-5.09153 9.399748-8.224779 19.974464-10.966372 30.157524-0.391656 2.741593-0.783312 5.483186-1.174968 7.833123l-0.391657 2.349936v5.874843c-0.783312 5.483186 0.391656 10.966372 0 16.449558 1.566625 10.574716 3.916561 21.149432 7.833123 31.332492 4.308218 9.791404 9.791404 19.191151 16.449559 27.807586 7.049811 8.224779 15.27459 15.666246 23.891025 21.932745 9.008091 5.874842 18.799495 10.574716 28.982555 13.707965 10.18306 3.133249 21.149432 4.308218 32.115804 4.699874 27.41593 0.391656 54.831861 4.308218 81.072822 12.14134 26.240962 8.224779 51.306955 19.974464 74.414669 35.249054 22.716057 15.666246 43.082176 34.074085 60.706703 54.83186 17.232871 21.149432 31.332492 45.040457 42.298864 70.498107 10.574716 25.45765 16.841214 52.481924 19.974463 79.506198 0.783312 13.707965 1.958281 27.41593 0.783313 41.123896l-0.391657 10.183059c0 1.566625 0 3.524905-0.391656 5.09153l-0.783312 5.09153c-0.783312 6.658155-1.958281 13.707965-3.133249 20.36612-5.483186 27.024274-14.882934 53.265236-27.807587 77.547917-13.316309 24.282681-29.765867 46.215425-48.957018 65.798233-19.582807 19.191151-41.907208 35.640709-65.798233 48.957019-24.282681 12.924653-50.523643 21.932744-77.547918 27.807586-6.658155 1.174968-13.707965 2.349937-20.366119 3.13325l-5.09153 0.783312c-1.566625 0-3.524905 0.391656-5.09153 0.391656l-10.18306 0.391656c-13.707965 1.174968-27.41593 0-41.123896-0.783312-27.41593-3.133249-54.048548-9.399748-79.506198-19.974464-25.45765-10.966372-48.957019-25.065993-70.498106-42.298864-21.149432-17.624527-39.557271-37.990646-54.831861-60.706703-15.27459-22.716057-27.024274-48.173706-35.249053-74.414668-7.833123-26.240962-11.749684-53.656892-12.141341-81.072823H213.349545c0.391656 28.982555 4.308218 58.356766 12.924653 86.556009 8.616435 28.199243 21.149432 54.831861 37.59899 79.114542 16.449558 24.282681 36.424022 45.823769 58.748422 64.623265 22.716057 18.407839 48.173706 33.682429 75.197981 45.040457 27.024274 11.358028 56.006829 18.016183 84.989384 21.149432 14.491277 0.783312 28.982555 1.958281 43.865489 0.783312l10.966372-0.783312c1.958281 0 3.524905 0 5.483186-0.391657l5.483186-0.783312c7.441467-1.174968 14.491277-1.958281 21.541088-3.524905 28.590899-5.874842 56.790141-15.666246 82.639447-29.374211 25.849306-14.099621 49.348675-31.724148 70.106451-52.090268 20.36612-20.757776 37.990646-44.648801 52.090268-70.106451 13.707965-25.849306 23.499369-54.048548 29.374211-82.639447 1.174968-7.049811 2.349937-14.491277 3.524905-21.541088l0.783312-5.483186c0.391656-1.958281 0.391656-3.524905 0.391656-5.483186l0.783313-10.966372c0.783312-14.491277-0.391656-28.982555-1.566625-43.473833z" fill="" p-id="9542"></path></svg>