<?xml version="1.0" standalone="no"?><!DOCTYPE svg PUBLIC "-//W3C//DTD SVG 1.1//EN" "http://www.w3.org/Graphics/SVG/1.1/DTD/svg11.dtd"><svg t="1535352240506" class="icon" style="" viewBox="0 0 1024 1024" version="1.1" xmlns="http://www.w3.org/2000/svg" p-id="19767" xmlns:xlink="http://www.w3.org/1999/xlink" width="200" height="200"><defs><style type="text/css"></style></defs><path d="M757.321288 128.018675c76.457346 0 138.660036 62.202691 138.660037 138.660037s-62.202691 138.660036-138.660037 138.660036-138.660036-62.202691-138.660036-138.660036S680.863942 128.018675 757.321288 128.018675m-351.98254 0v277.320073H128.018675V128.018675h277.320073m490.642577 490.642577v277.320073H618.661252V618.661252h277.320073m-490.642577 0v277.320073H128.018675V618.661252h277.320073M757.321288 64.021106c-111.924115 0-202.656583 90.732467-202.656583 202.656583s90.732467 202.656583 202.656583 202.656582 202.656583-90.731444 202.656583-202.655559S869.245404 64.021106 757.321288 64.021106z m-330.650699 0H106.685811c-23.562649 0-42.664705 19.101033-42.664705 42.664705V426.670589c0 23.563672 19.102057 42.664705 42.664705 42.664706h319.984778c23.562649 0 42.664705-19.101033 42.664706-42.664706V106.685811c0-23.563672-19.102057-42.664705-42.664706-42.664705z m490.6436 490.643599H597.329411c-23.563672 0-42.664705 19.101033-42.664706 42.664706v319.984778c0 23.563672 19.101033 42.664705 42.664706 42.664705h319.984778c23.562649 0 42.664705-19.101033 42.664705-42.664705V597.329411c-0.001023-23.564695-19.102057-42.664705-42.664705-42.664706z m-490.6436 0H106.685811c-23.562649 0-42.664705 19.101033-42.664705 42.664706v319.984778c0 23.563672 19.102057 42.664705 42.664705 42.664705h319.984778c23.562649 0 42.664705-19.101033 42.664706-42.664705V597.329411c0-23.564695-19.102057-42.664705-42.664706-42.664706z" p-id="19768"></path></svg>