<?xml version="1.0" standalone="no"?><!DOCTYPE svg PUBLIC "-//W3C//DTD SVG 1.1//EN" "http://www.w3.org/Graphics/SVG/1.1/DTD/svg11.dtd"><svg t="1551428383672" class="icon" style="" viewBox="0 0 1024 1024" version="1.1" xmlns="http://www.w3.org/2000/svg" p-id="27007" xmlns:xlink="http://www.w3.org/1999/xlink" width="200" height="200"><defs><style type="text/css"></style></defs><path d="M764.586667 386.844444l170.666666-273.066666H587.093333l-54.613333 43.235555 68.266667 127.431111c63.715556 18.204444 120.604444 52.337778 163.84 102.4zM512 273.066667c11.377778 0 22.755556 0 34.133333 2.275555l-109.226666-159.288889H88.746667l172.942222 268.515556c63.715556-72.817778 154.737778-111.502222 250.311111-111.502222z" fill="" p-id="27008"></path><path d="M512 314.026667c-163.84 0-298.097778 131.982222-298.097778 298.097777S348.16 910.222222 512 910.222222s298.097778-131.982222 298.097778-298.097778-134.257778-298.097778-298.097778-298.097777z m111.502222 466.488889l-111.502222-59.164445-111.502222 59.164445 20.48-122.88-88.746667-88.746667 122.88-18.204445 54.613333-111.502222 54.613334 111.502222 122.88 18.204445-88.746667 86.471111 25.031111 125.155556z" fill="" p-id="27009"></path></svg>